SplineFontDB: 3.2
FontName: Derani
FullName: Derani
FamilyName: Derani
Weight: Regular
Copyright: Copyright Miles Forster 2022
Version: 1.0
ItalicAngle: 0
UnderlinePosition: 249
UnderlineWidth: 166
Ascent: 2389
Descent: 955
InvalidEm: 0
sfntRevision: 0x00010000
LayerCount: 2
Layer: 0 1 "Back" 1
Layer: 1 1 "Fore" 0
XUID: [1021 618 -23699139 8853324]
StyleMap: 0x0040
FSType: 4
OS2Version: 2
OS2_WeightWidthSlopeOnly: 0
OS2_UseTypoMetrics: 0
CreationTime: 1670694376
ModificationTime: 1671053983
PfmFamily: 81
TTFWeight: 400
TTFWidth: 5
LineGap: 0
VLineGap: 0
Panose: 0 0 4 0 0 0 0 0 0 0
OS2TypoAscent: 3511
OS2TypoAOffset: 0
OS2TypoDescent: -1559
OS2TypoDOffset: 0
OS2TypoLinegap: 0
OS2WinAscent: 3511
OS2WinAOffset: 0
OS2WinDescent: 1559
OS2WinDOffset: 0
HheadAscent: 3511
HheadAOffset: 0
HheadDescent: -1559
HheadDOffset: 0
OS2SubXSize: 1672
OS2SubYSize: 1672
OS2SubXOff: 0
OS2SubYOff: -779
OS2SupXSize: 1672
OS2SupYSize: 1672
OS2SupXOff: 0
OS2SupYOff: 1672
OS2StrikeYSize: 167
OS2StrikeYPos: 668
OS2CapHeight: 5072
OS2XHeight: 3511
OS2Vendor: 'FSTR'
OS2CodePages: 200101ff.cdff0000
OS2UnicodeRanges: 00000001.10000000.00000000.00000000
Lookup: 1 0 0 "WithCartouche" { "WithCartouche"  } ['cart' ('DFLT' <'dflt' > 'latn' <'dflt' > ) ]
Lookup: 6 8 0 "Connect cartouches" { "Connect cartouche start"  "Connect cartouche medials"  } ['calt' ('DFLT' <'dflt' > 'latn' <'dflt' > ) ]
Lookup: 260 0 0 "'mark' Mark Positioning in Latin lookup 1" { "'mark' Mark Positioning in Latin lookup 1-1"  } ['mark' ('DFLT' <'dflt' > 'latn' <'dflt' > ) ]
Lookup: 258 0 0 "'kern' Horizontal Kerning in Latin lookup 0" { "'kern' Horizontal Kerning in Latin lookup 0 subtable" [307,30,0] } ['kern' ('latn' <'dflt' > ) ]
MarkAttachClasses: 1
DEI: 91125
ChainSub2: class "Connect cartouche medials" 2 2 1 1
  Class: 175 space quote oaomo prefix bubue cecoa dudeo fofuaq gugui hehaq jujuo kikue laoliq mamei nanaq pipoq aqaq rairua saqseoq titieq veva nhanhoq shoshia chichao zozeo rising_falling

StartChar: other_stop
Encoding: 1 60888 1
Width: 1404
GlyphClass: 2
Flags: W
HStem: 0 21G<332.954 369.046>
VStem: 702 351<3120 3470.42> 1053 351<-1129.42 3120>
LayerCount: 2
Fore
SplineSet
351 0 m 1,0,-1
 0 389 l 1,1,-1
 351 779 l 1,2,-1
 702 389 l 1,3,-1
 351 0 l 1,0,-1
351 779 m 1,4,-1
 0 1169 l 1,5,-1
 351 1559 l 1,6,-1
 702 1169 l 1,7,-1
 351 779 l 1,4,-1
702 -1559 m 1,8,9
 847 -1559 847 -1559 950 -1331 c 256,10,11
 1053 -1102 1053 -1102 1053 -779 c 2,12,-1
 1053 3120 l 1,13,-1
 1404 3120 l 1,14,-1
 1404 -779 l 2,15,16
 1404 -1102 1404 -1102 1198 -1331 c 256,17,18
 993 -1559 993 -1559 702 -1559 c 1,8,9
702 3120 m 1,19,20
 702 3443 702 3443 908 3672 c 256,21,22
 1114 3901 1114 3901 1404 3901 c 1,23,24
 1259 3901 1259 3901 1156 3672 c 256,25,26
 1053 3443 1053 3443 1053 3120 c 1,27,-1
 702 3120 l 1,19,20
EndSplineSet
Validated: 5
EndChar

StartChar: quote
Encoding: 2 60885 2
Width: 1404
GlyphClass: 2
Flags: W
HStem: 0 21G<683.954 720.046>
VStem: 351 702
LayerCount: 2
Fore
SplineSet
702 0 m 1,0,-1
 351 389 l 1,1,-1
 702 779 l 1,2,-1
 1053 389 l 1,3,-1
 702 0 l 1,0,-1
702 779 m 1,4,-1
 351 1169 l 1,5,-1
 702 1559 l 1,6,-1
 1053 1169 l 1,7,-1
 702 779 l 1,4,-1
EndSplineSet
Validated: 5
Substitution2: "WithCartouche" quote_c
EndChar

StartChar: null
Encoding: 3 60892 3
Width: 2018
GlyphClass: 2
Flags: W
HStem: 3120 391<-36.8477 1163.05>
VStem: 175 351<779 1129.42> 526 351<428.576 779> 877 0<1559 1559> 1316 351<-1129.42 2968>
LayerCount: 2
Fore
SplineSet
175 0 m 1,0,1
 320 0 320 0 423 227 c 0,2,3
 526 456 526 456 526 779 c 1,4,-1
 877 779 l 1,5,6
 877 456 877 456 671 227 c 0,7,8
 466 0 466 0 175 0 c 1,0,1
175 779 m 1,9,10
 175 1102 175 1102 380 1331 c 256,11,12
 586 1560 586 1560 877 1559 c 1,13,14
 732 1559 732 1559 629 1331 c 256,15,16
 526 1102 526 1102 526 779 c 1,17,-1
 175 779 l 1,9,10
965 -1559 m 1,18,19
 1110 -1559 1110 -1559 1213 -1331 c 256,20,21
 1316 -1102 1316 -1102 1316 -779 c 2,22,-1
 1316 2730 l 2,23,24
 1316 2892 1316 2892 1213 3006 c 256,25,26
 1110 3120 1110 3120 965 3120 c 2,27,-1
 263 3120 l 2,28,29
 -28 3120 -28 3120 -232 3006 c 0,30,31
 -438 2892 -438 2892 -438 2730 c 1,32,33
 -438 3053 -438 3053 -232 3282 c 0,34,35
 -28 3511 -28 3511 263 3511 c 2,36,-1
 965 3511 l 2,37,38
 1256 3511 1256 3511 1461 3282 c 256,39,40
 1667 3053 1667 3053 1667 2730 c 2,41,-1
 1667 -779 l 2,42,43
 1667 -1102 1667 -1102 1461 -1331 c 256,44,45
 1256 -1559 1256 -1559 965 -1559 c 1,18,19
EndSplineSet
Validated: 37
EndChar

StartChar: diphthong
Encoding: 4 60880 4
Width: 0
GlyphClass: 4
Flags: W
HStem: -779 390<702 1755>
VStem: 1755 351<-1129.42 -779>
AnchorPoint: "diphthong" 1404 -490 mark 0
LayerCount: 2
Fore
SplineSet
1404 -1559 m 1,0,1
 1549 -1559 1549 -1559 1652 -1331 c 256,2,3
 1755 -1102 1755 -1102 1755 -779 c 1,4,-1
 702 -779 l 1,5,-1
 702 -389 l 1,6,-1
 2106 -389 l 1,7,-1
 2106 -779 l 2,8,9
 2106 -1102 2106 -1102 1901 -1331 c 256,10,11
 1695 -1559 1695 -1559 1404 -1559 c 1,0,1
EndSplineSet
Validated: 1
EndChar

StartChar: subordination
Encoding: 5 60886 5
Width: 3510
GlyphClass: 2
Flags: W
HStem: 0 389<0 351 702 1053 1404 1755 2106 2457 2808 3159>
VStem: 351 351<-350.424 0> 1053 351<-350.424 0> 1755 351<-350.424 0> 2457 351<-350.424 0> 3159 352<-350.424 0>
LayerCount: 2
Fore
SplineSet
0 -779 m 1,0,1
 145 -779 145 -779 248 -552 c 0,2,3
 351 -323 351 -323 351 0 c 1,4,-1
 0 0 l 1,5,-1
 0 389 l 1,6,-1
 3511 389 l 1,7,-1
 3511 0 l 2,8,9
 3511 -323 3511 -323 3305 -552 c 0,10,11
 3099 -779 3099 -779 2808 -779 c 1,12,13
 2953 -779 2953 -779 3057 -552 c 0,14,15
 3160 -323 3160 -323 3159 0 c 1,16,-1
 2808 0 l 1,17,18
 2808 -323 2808 -323 2603 -552 c 0,19,20
 2397 -779 2397 -779 2106 -779 c 1,21,22
 2251 -779 2251 -779 2355 -552 c 0,23,24
 2458 -323 2458 -323 2457 0 c 1,25,-1
 2106 0 l 1,26,27
 2106 -323 2106 -323 1901 -552 c 0,28,29
 1695 -779 1695 -779 1404 -779 c 1,30,31
 1549 -779 1549 -779 1652 -552 c 0,32,33
 1755 -323 1755 -323 1755 0 c 1,34,-1
 1404 0 l 1,35,36
 1404 -323 1404 -323 1198 -552 c 0,37,38
 992 -779 992 -779 702 -779 c 1,39,40
 847 -779 847 -779 950 -552 c 0,41,42
 1053 -323 1053 -323 1053 0 c 1,43,-1
 702 0 l 1,44,45
 702 -323 702 -323 496 -552 c 0,46,47
 291 -779 291 -779 0 -779 c 1,0,1
EndSplineSet
Validated: 33
EndChar

StartChar: oaomo
Encoding: 6 60868 6
Width: 876
GlyphClass: 2
Flags: W
HStem: 545 469<290.944 589.814>
VStem: 227 421<616.163 955.36>
LayerCount: 2
Fore
SplineSet
438 545 m 0,0,1
 351 545 351 545 289 614 c 256,2,3
 227 683 227 683 227 779 c 0,4,5
 227 877 227 877 289 945 c 256,6,7
 351 1014 351 1014 438 1014 c 0,8,9
 526 1014 526 1014 586 945 c 0,10,11
 648 876 648 876 648 779 c 0,12,13
 648 683 648 683 586 614 c 0,14,15
 526 545 526 545 438 545 c 0,0,1
EndSplineSet
Validated: 1
Substitution2: "WithCartouche" oaomo_c
EndChar

StartChar: declarative_stop
Encoding: 7 60887 7
Width: 1404
GlyphClass: 2
Flags: W
VStem: 702 351<3120 3470.42> 1053 351<-1129.42 3120>
LayerCount: 2
Fore
SplineSet
351 389 m 1,0,-1
 0 779 l 1,1,-1
 351 1169 l 1,2,-1
 702 779 l 1,3,-1
 351 389 l 1,0,-1
702 -1559 m 1,4,5
 847 -1559 847 -1559 950 -1331 c 256,6,7
 1053 -1102 1053 -1102 1053 -779 c 2,8,-1
 1053 3120 l 1,9,-1
 1404 3120 l 1,10,-1
 1404 -779 l 2,11,12
 1404 -1102 1404 -1102 1198 -1331 c 256,13,14
 993 -1559 993 -1559 702 -1559 c 1,4,5
702 3120 m 1,15,16
 702 3443 702 3443 908 3672 c 256,17,18
 1114 3901 1114 3901 1404 3901 c 1,19,20
 1259 3901 1259 3901 1156 3672 c 256,21,22
 1053 3443 1053 3443 1053 3120 c 1,23,-1
 702 3120 l 1,15,16
EndSplineSet
Validated: 5
EndChar

StartChar: rising
Encoding: 8 60881 8
Width: 0
GlyphClass: 4
Flags: W
HStem: 2048 878
VStem: 175 878
AnchorPoint: "tone" 627 1705 mark 0
LayerCount: 2
Fore
SplineSet
175 2048 m 1,0,-1
 175 2438 l 1,1,-1
 1053 2926 l 1,2,-1
 1053 2536 l 1,3,-1
 175 2048 l 1,0,-1
EndSplineSet
Validated: 1
EndChar

StartChar: prefix
Encoding: 9 60884 9
Width: 876
GlyphClass: 2
Flags: W
HStem: 155 469<290.944 589.814> 936 468<290.944 584.118>
VStem: 227 421<226.163 565.36 1006.16 1333.84>
LayerCount: 2
Fore
SplineSet
438 155 m 0,0,1
 351 155 351 155 289 224 c 256,2,3
 227 293 227 293 227 389 c 0,4,5
 227 487 227 487 289 555 c 256,6,7
 351 624 351 624 438 624 c 0,8,9
 526 624 526 624 586 555 c 0,10,11
 648 486 648 486 648 389 c 0,12,13
 648 293 648 293 586 224 c 0,14,15
 526 155 526 155 438 155 c 0,0,1
438 936 m 0,16,17
 351 936 351 936 289 1004 c 256,18,19
 227 1073 227 1073 227 1169 c 0,20,21
 227 1267 227 1267 289 1336 c 256,22,23
 351 1405 351 1405 438 1404 c 0,24,25
 526 1404 526 1404 586 1336 c 0,26,27
 648 1267 648 1267 648 1169 c 0,28,29
 648 1073 648 1073 586 1004 c 0,30,31
 526 936 526 936 438 936 c 0,16,17
EndSplineSet
Validated: 33
Substitution2: "WithCartouche" prefix_c
EndChar

StartChar: interrogative_stop
Encoding: 10 60889 10
Width: 1404
GlyphClass: 2
Flags: W
VStem: 702 351<3120 3470.42> 1053 351<-1129.42 3120>
LayerCount: 2
Fore
SplineSet
351 -389 m 1,0,-1
 0 0 l 1,1,-1
 2 0 l 1,2,-1
 351 389 l 1,3,-1
 702 2 l 1,4,-1
 702 0 l 1,5,-1
 351 -389 l 1,0,-1
351 389 m 1,6,-1
 0 776 l 1,7,-1
 0 779 l 1,8,-1
 2 779 l 1,9,-1
 351 1169 l 1,10,-1
 702 782 l 1,11,-1
 702 779 l 1,12,-1
 699 779 l 1,13,-1
 351 389 l 1,6,-1
351 1169 m 1,14,-1
 0 1556 l 1,15,-1
 0 1559 l 1,16,-1
 351 1950 l 1,17,-1
 702 1559 l 1,18,-1
 699 1559 l 1,19,-1
 351 1169 l 1,14,-1
702 -1559 m 1,20,21
 847 -1559 847 -1559 950 -1331 c 256,22,23
 1053 -1102 1053 -1102 1053 -779 c 2,24,-1
 1053 3120 l 1,25,-1
 1404 3120 l 1,26,-1
 1404 -779 l 2,27,28
 1404 -1102 1404 -1102 1198 -1331 c 256,29,30
 993 -1559 993 -1559 702 -1559 c 1,20,21
702 3120 m 1,31,32
 702 3443 702 3443 908 3672 c 256,33,34
 1114 3901 1114 3901 1404 3901 c 1,35,36
 1259 3901 1259 3901 1156 3672 c 256,37,38
 1053 3443 1053 3443 1053 3120 c 1,39,-1
 702 3120 l 1,31,32
EndSplineSet
Validated: 5
EndChar

StartChar: cartouche_start
Encoding: 11 60890 11
Width: 0
GlyphClass: 2
Flags: W
HStem: 3120 391<-211.863 702>
LayerCount: 2
Fore
SplineSet
-614 2730 m 1,0,1
 -614 3053 -614 3053 -408 3282 c 0,2,3
 -233 3475 -233 3475 0 3506 c 1,4,-1
 0 3511 l 1,5,-1
 702 3511 l 1,6,-1
 702 3120 l 1,7,-1
 87 3120 l 2,8,9
 -202 3120 -202 3120 -408 3006 c 256,10,11
 -614 2892 -614 2892 -614 2730 c 1,0,1
EndSplineSet
Validated: 1
EndChar

StartChar: low_glottal
Encoding: 12 60882 12
Width: 0
GlyphClass: 4
Flags: W
HStem: 2536 390<152.49 1353.48> 3315 0<1755 1755>
VStem: -351 351<1795.58 2383.37>
AnchorPoint: "tone" 702 1559 mark 0
LayerCount: 2
Fore
SplineSet
351 1365 m 1,0,1
 59 1365 59 1365 -145 1594 c 0,2,3
 -351 1823 -351 1823 -351 2146 c 0,4,5
 -351 2468 -351 2468 -145 2696 c 0,6,7
 59 2926 59 2926 351 2926 c 2,8,-1
 1053 2926 l 2,9,10
 1344 2926 1344 2926 1550 3040 c 0,11,12
 1756 3153 1756 3153 1755 3315 c 1,13,14
 1755 2993 1755 2993 1550 2764 c 256,15,16
 1344 2535 1344 2535 1053 2536 c 2,17,-1
 351 2536 l 2,18,19
 206 2536 206 2536 103 2420 c 0,20,21
 0 2307 0 2307 0 2146 c 0,22,23
 0 1823 0 1823 103 1594 c 0,24,25
 204 1365 204 1365 351 1365 c 1,0,1
EndSplineSet
Validated: 41
EndChar

StartChar: cartouche_end
Encoding: 13 60891 13
Width: 964
GlyphClass: 2
Flags: W
HStem: 3120 391<0 198.049>
VStem: 351 351<-1129.42 2965.39>
LayerCount: 2
Fore
SplineSet
0 -1559 m 1,0,1
 145 -1559 145 -1559 248 -1331 c 256,2,3
 351 -1102 351 -1102 351 -779 c 2,4,-1
 351 2730 l 2,5,6
 351 2892 351 2892 247 3006 c 0,7,8
 146 3120 146 3120 0 3120 c 1,9,-1
 0 3511 l 1,10,11
 291 3511 291 3511 496 3282 c 256,12,13
 702 3053 702 3053 702 2730 c 2,14,-1
 702 -779 l 2,15,16
 702 -1102 702 -1102 496 -1331 c 256,17,18
 291 -1559 291 -1559 0 -1559 c 1,0,1
EndSplineSet
Validated: 1
EndChar

StartChar: bubue
Encoding: 14 60849 14
Width: 1404
GlyphClass: 2
Flags: W
HStem: 1169 390<497.577 900.049>
VStem: 0 351<779 1017> 1053 351<428.576 1015.7>
AnchorPoint: "diphthong" 1404 -490 basechar 0
AnchorPoint: "tone" 702 1559 basechar 0
LayerCount: 2
Fore
SplineSet
702 0 m 1,0,1
 847 0 847 0 950 227 c 0,2,3
 1053 456 1053 456 1053 779 c 0,4,5
 1053 941 1053 941 949 1055 c 0,6,7
 848 1169 848 1169 702 1169 c 256,8,9
 557 1169 557 1169 454 1055 c 256,10,11
 351 941 351 941 351 779 c 1,12,-1
 0 779 l 1,13,14
 0 1102 0 1102 206 1331 c 256,15,16
 412 1560 412 1560 702 1559 c 256,17,18
 993 1559 993 1559 1198 1331 c 256,19,20
 1404 1102 1404 1102 1404 779 c 256,21,22
 1404 456 1404 456 1198 227 c 0,23,24
 993 0 993 0 702 0 c 1,0,1
EndSplineSet
Validated: 33
Substitution2: "WithCartouche" bubue_c
EndChar

StartChar: cecoa
Encoding: 15 60856 15
Width: 1404
GlyphClass: 2
Flags: W
HStem: 0 389<502.511 1002.16> 1169 390<497.577 702>
VStem: 0 351<541.739 1017.6>
AnchorPoint: "diphthong" 1404 -490 basechar 0
AnchorPoint: "tone" 702 1559 basechar 0
LayerCount: 2
Fore
SplineSet
702 0 m 256,0,1
 411 0 411 0 206 229 c 256,2,3
 0 458 0 458 0 779 c 0,4,5
 0 1102 0 1102 206 1331 c 256,6,7
 412 1560 412 1560 702 1559 c 1,8,-1
 702 1169 l 1,9,10
 557 1169 557 1169 454 1055 c 256,11,12
 351 941 351 941 351 779 c 256,13,14
 351 617 351 617 454 505 c 0,15,16
 557 389 557 389 702 389 c 0,17,18
 993 389 993 389 1198 503 c 256,19,20
 1404 617 1404 617 1404 779 c 1,21,22
 1404 456 1404 456 1198 229 c 0,23,24
 993 0 993 0 702 0 c 256,0,1
EndSplineSet
Validated: 33
Substitution2: "WithCartouche" cecoa_c
EndChar

StartChar: dudeo
Encoding: 16 60853 16
Width: 1404
GlyphClass: 2
Flags: W
HStem: 0 389<400.711 901.183> 779 294<529.95 685.789> 1267 292<530.204 699.286>
VStem: 263 263<1075.6 1265.68> 1053 351<547.99 1017.6>
AnchorPoint: "tone" 702 1559 basechar 0
LayerCount: 2
Fore
SplineSet
950 1055 m 257,0,1
 950 1055 950 1055 950 1055 c 257,0,1
614 1073 m 0,2,3
 650 1073 650 1073 676 1101 c 256,4,5
 702 1129 702 1129 702 1169 c 256,6,7
 702 1210 702 1210 676 1238 c 0,8,9
 650 1267 650 1267 614 1267 c 0,10,11
 576 1267 576 1267 552 1238 c 0,12,13
 526 1210 526 1210 526 1169 c 256,14,15
 526 1128 526 1128 552 1101 c 0,16,17
 576 1073 576 1073 614 1073 c 0,2,3
702 0 m 0,18,19
 410 0 410 0 204 229 c 0,20,21
 0 456 0 456 0 779 c 1,22,23
 0 617 0 617 204 503 c 0,24,25
 410 389 410 389 702 389 c 0,26,27
 847 389 847 389 949 505 c 0,28,29
 1053 618 1053 618 1053 779 c 256,30,31
 1053 941 1053 941 950 1055 c 1,32,33
 926 965 926 965 862 893 c 0,34,35
 759 779 759 779 614 779 c 256,36,37
 469 779 469 779 366 893 c 256,38,39
 263 1007 263 1007 263 1169 c 256,40,41
 263 1331 263 1331 366 1445 c 256,42,43
 469 1559 469 1559 614 1559 c 0,44,45
 660 1559 660 1559 702 1548 c 1,46,-1
 702 1559 l 1,47,48
 993 1559 993 1559 1198 1331 c 256,49,50
 1404 1102 1404 1102 1404 779 c 0,51,52
 1404 457 1404 457 1198 229 c 256,53,54
 993 0 993 0 702 0 c 0,18,19
EndSplineSet
Validated: 1
Substitution2: "WithCartouche" dudeo_c
EndChar

StartChar: fofuaq
Encoding: 17 60851 17
Width: 1404
GlyphClass: 2
Flags: W
HStem: 1169 390<497.577 900.049>
VStem: 0 351<779 1017> 1053 351<-1129.42 1014.39>
AnchorPoint: "diphthong" 1404 -490 basechar 0
AnchorPoint: "tone" 702 1559 basechar 0
LayerCount: 2
Fore
SplineSet
702 -1559 m 1,0,1
 847 -1559 847 -1559 950 -1331 c 256,2,3
 1053 -1102 1053 -1102 1053 -779 c 2,4,-1
 1053 779 l 2,5,6
 1053 941 1053 941 949 1055 c 0,7,8
 848 1169 848 1169 702 1169 c 256,9,10
 557 1169 557 1169 454 1055 c 256,11,12
 351 941 351 941 351 779 c 1,13,-1
 0 779 l 1,14,15
 0 1102 0 1102 206 1331 c 256,16,17
 412 1560 412 1560 702 1559 c 256,18,19
 993 1559 993 1559 1198 1331 c 256,20,21
 1404 1102 1404 1102 1404 779 c 2,22,-1
 1404 -779 l 2,23,24
 1404 -1102 1404 -1102 1198 -1331 c 256,25,26
 993 -1559 993 -1559 702 -1559 c 1,0,1
EndSplineSet
Validated: 33
Substitution2: "WithCartouche" fofuaq_c
EndChar

StartChar: gugui
Encoding: 18 60866 18
Width: 1841
GlyphClass: 2
Flags: W
HStem: 0 389<502.511 901.183 1555.51 1958.49> 1169 390<497.577 702>
VStem: 0 351<541.739 1017.6> 1053 351<545.262 779>
AnchorPoint: "diphthong" 1755 -490 basechar 0
AnchorPoint: "tone" 702 1559 basechar 0
LayerCount: 2
Fore
SplineSet
1228 263 m 257,0,1
 1228 263 1228 263 1228 263 c 257,0,1
702 0 m 256,2,3
 411 0 411 0 206 229 c 256,4,5
 0 458 0 458 0 779 c 0,6,7
 0 1102 0 1102 206 1331 c 256,8,9
 412 1560 412 1560 702 1559 c 1,10,-1
 702 1169 l 1,11,12
 557 1169 557 1169 454 1055 c 256,13,14
 351 941 351 941 351 779 c 256,15,16
 351 617 351 617 454 505 c 0,17,18
 557 389 557 389 702 389 c 256,19,20
 847 389 847 389 949 505 c 0,21,22
 1053 618 1053 618 1053 779 c 1,23,-1
 1404 779 l 1,24,25
 1404 617 1404 617 1507 505 c 0,26,27
 1610 389 1610 389 1755 389 c 0,28,29
 1827 389 1827 389 1892 420 c 0,30,31
 1954 449 1954 449 2003 503 c 1,32,-1
 2252 229 l 1,33,34
 2154 121 2154 121 2028 60 c 0,35,36
 1897 0 1897 0 1755 0 c 0,37,38
 1464 0 1464 0 1259 229 c 0,39,40
 1243 245 1243 245 1228 263 c 1,41,42
 1213 245 1213 245 1198 229 c 0,43,44
 993 0 993 0 702 0 c 256,2,3
EndSplineSet
Validated: 33
Substitution2: "WithCartouche" gugui_c
EndChar

StartChar: hehaq
Encoding: 19 60869 19
Width: 1404
GlyphClass: 2
Flags: W
HStem: 0 389<702 1053 1404 2406.48> 779 0<2808 2808> 1169 390<497.577 900.049>
VStem: 0 351<779 1017> 1053 351<-1129.42 0 389 1014.39>
AnchorPoint: "tone" 702 1559 basechar 0
LayerCount: 2
Fore
SplineSet
702 -1559 m 1,0,1
 847 -1559 847 -1559 950 -1331 c 256,2,3
 1053 -1102 1053 -1102 1053 -779 c 2,4,-1
 1053 0 l 1,5,-1
 702 0 l 1,6,-1
 702 389 l 1,7,-1
 1053 389 l 1,8,-1
 1053 779 l 2,9,10
 1053 941 1053 941 949 1055 c 0,11,12
 848 1169 848 1169 702 1169 c 256,13,14
 557 1169 557 1169 454 1055 c 256,15,16
 351 941 351 941 351 779 c 1,17,-1
 0 779 l 1,18,19
 0 1102 0 1102 206 1331 c 256,20,21
 412 1560 412 1560 702 1559 c 256,22,23
 993 1559 993 1559 1198 1331 c 256,24,25
 1404 1102 1404 1102 1404 779 c 2,26,-1
 1404 389 l 1,27,-1
 2106 389 l 2,28,29
 2397 389 2397 389 2603 503 c 256,30,31
 2809 617 2809 617 2808 779 c 1,32,33
 2808 456 2808 456 2603 229 c 0,34,35
 2397 0 2397 0 2106 0 c 2,36,-1
 1404 0 l 1,37,-1
 1404 -779 l 2,38,39
 1404 -1102 1404 -1102 1198 -1331 c 256,40,41
 993 -1559 993 -1559 702 -1559 c 1,0,1
EndSplineSet
Validated: 41
Substitution2: "WithCartouche" hehaq_c
EndChar

StartChar: jujuo
Encoding: 20 60861 20
Width: 2457
GlyphClass: 2
Flags: W
HStem: 1169 390<497.577 900.049 1550.58 1953.18>
VStem: 0 351<779 1017> 1053 351<779 1014.39> 2106 351<428.576 1017>
CounterMasks: 1 70
AnchorPoint: "tone" 702 1559 basechar 0
LayerCount: 2
Fore
SplineSet
1755 0 m 1,0,1
 1900 0 1900 0 2003 227 c 0,2,3
 2106 456 2106 456 2106 779 c 0,4,5
 2106 941 2106 941 2003 1055 c 256,6,7
 1900 1169 1900 1169 1755 1169 c 256,8,9
 1610 1169 1610 1169 1507 1055 c 256,10,11
 1404 941 1404 941 1404 779 c 1,12,-1
 1053 779 l 1,13,14
 1053 941 1053 941 949 1055 c 0,15,16
 848 1169 848 1169 702 1169 c 256,17,18
 557 1169 557 1169 454 1055 c 256,19,20
 351 941 351 941 351 779 c 1,21,-1
 0 779 l 1,22,23
 0 1102 0 1102 206 1331 c 256,24,25
 412 1560 412 1560 702 1559 c 256,26,27
 993 1559 993 1559 1198 1331 c 0,28,29
 1213 1315 1213 1315 1228 1296 c 1,30,31
 1243 1314 1243 1314 1259 1331 c 0,32,33
 1465 1560 1465 1560 1755 1559 c 256,34,35
 2046 1559 2046 1559 2252 1331 c 256,36,37
 2458 1102 2458 1102 2457 779 c 256,38,39
 2457 456 2457 456 2252 227 c 0,40,41
 2046 0 2046 0 1755 0 c 1,0,1
EndSplineSet
Validated: 33
Substitution2: "WithCartouche" jujuo_c
EndChar

StartChar: kikue
Encoding: 21 60867 21
Width: 1404
GlyphClass: 2
Flags: W
HStem: -1014 469<553.944 849.056> 0 389<502.511 1002.16> 1169 390<497.577 702>
VStem: 0 351<541.739 1017.6> 491 422<-942.837 -616.163>
AnchorPoint: "tone" 702 1559 basechar 0
LayerCount: 2
Fore
SplineSet
702 -1014 m 0,0,1
 614 -1014 614 -1014 552 -945 c 0,2,3
 492 -876 492 -876 491 -779 c 0,4,5
 491 -683 491 -683 552 -614 c 0,6,7
 614 -545 614 -545 702 -545 c 0,8,9
 789 -545 789 -545 851 -614 c 256,10,11
 913 -683 913 -683 913 -779 c 0,12,13
 913 -877 913 -877 851 -945 c 256,14,15
 789 -1014 789 -1014 702 -1014 c 0,0,1
702 0 m 256,16,17
 411 0 411 0 206 229 c 256,18,19
 0 458 0 458 0 779 c 0,20,21
 0 1102 0 1102 206 1331 c 256,22,23
 412 1560 412 1560 702 1559 c 1,24,-1
 702 1169 l 1,25,26
 557 1169 557 1169 454 1055 c 256,27,28
 351 941 351 941 351 779 c 256,29,30
 351 617 351 617 454 505 c 0,31,32
 557 389 557 389 702 389 c 0,33,34
 993 389 993 389 1198 503 c 256,35,36
 1404 617 1404 617 1404 779 c 1,37,38
 1404 456 1404 456 1198 229 c 0,39,40
 993 0 993 0 702 0 c 256,16,17
EndSplineSet
Validated: 33
Substitution2: "WithCartouche" kikue_c
EndChar

StartChar: laoliq
Encoding: 22 60859 22
Width: 2808
GlyphClass: 2
Flags: W
HStem: -1014 469<1603.19 1902.06> 0 389<1311 2457> 1169 390<497.577 900.049 1901.58 2311.38>
VStem: 0 351<779 1017> 1053 351<430.866 1015.7> 1404 351<779 1017> 1545 421<-955.36 -616.163> 2457 351<389 1017>
AnchorPoint: "tone" 702 1559 basechar 0
LayerCount: 2
Fore
SplineSet
1755 -1014 m 0,0,1
 1667 -1014 1667 -1014 1607 -945 c 0,2,3
 1545 -876 1545 -876 1545 -779 c 0,4,5
 1545 -683 1545 -683 1607 -614 c 0,6,7
 1667 -545 1667 -545 1755 -545 c 0,8,9
 1842 -545 1842 -545 1904 -614 c 256,10,11
 1966 -683 1966 -683 1966 -779 c 0,12,13
 1966 -877 1966 -877 1904 -945 c 256,14,15
 1842 -1014 1842 -1014 1755 -1014 c 0,0,1
702 0 m 1,16,-1
 870 93 l 1,17,18
 912 145 912 145 950 227 c 0,19,20
 1053 456 1053 456 1053 779 c 0,21,22
 1053 941 1053 941 949 1055 c 0,23,24
 848 1169 848 1169 702 1169 c 256,25,26
 557 1169 557 1169 454 1055 c 256,27,28
 351 941 351 941 351 779 c 1,29,-1
 0 779 l 1,30,31
 0 1102 0 1102 206 1331 c 256,32,33
 412 1560 412 1560 702 1559 c 256,34,35
 993 1559 993 1559 1198 1331 c 256,36,37
 1404 1102 1404 1102 1404 779 c 0,38,39
 1404 563 1404 563 1311 389 c 1,40,-1
 2457 389 l 1,41,-1
 2457 779 l 2,42,43
 2457 941 2457 941 2355 1055 c 256,44,45
 2252 1169 2252 1169 2106 1169 c 256,46,47
 1961 1169 1961 1169 1858 1055 c 256,48,49
 1755 941 1755 941 1755 779 c 1,50,-1
 1404 779 l 1,51,52
 1404 1102 1404 1102 1610 1331 c 256,53,54
 1816 1560 1816 1560 2106 1559 c 256,55,56
 2397 1559 2397 1559 2603 1331 c 256,57,58
 2809 1102 2809 1102 2808 779 c 2,59,-1
 2808 0 l 1,60,-1
 702 0 l 1,16,-1
EndSplineSet
Validated: 37
Substitution2: "WithCartouche" laoliq_c
EndChar

StartChar: mamei
Encoding: 23 60848 23
Width: 4212
GlyphClass: 2
Flags: W
HStem: 0 389<1311 2457 2808 3862> 1169 390<497.577 900.049 1901.58 2311.38 3305.94 3709.05>
VStem: 0 351<779 1017> 1053 351<430.866 1015.7> 1404 351<779 1017> 2457 351<389 1017> 3862 351<-1129.42 0 389 1017>
AnchorPoint: "tone" 702 1559 basechar 0
LayerCount: 2
Fore
SplineSet
3511 -1559 m 1,0,1
 3656 -1559 3656 -1559 3759 -1331 c 256,2,3
 3862 -1102 3862 -1102 3862 -779 c 2,4,-1
 3862 0 l 1,5,-1
 702 0 l 1,6,-1
 870 93 l 1,7,8
 912 145 912 145 950 227 c 0,9,10
 1053 456 1053 456 1053 779 c 0,11,12
 1053 941 1053 941 949 1055 c 0,13,14
 848 1169 848 1169 702 1169 c 256,15,16
 557 1169 557 1169 454 1055 c 256,17,18
 351 941 351 941 351 779 c 1,19,-1
 0 779 l 1,20,21
 0 1102 0 1102 206 1331 c 256,22,23
 412 1560 412 1560 702 1559 c 256,24,25
 993 1559 993 1559 1198 1331 c 256,26,27
 1404 1102 1404 1102 1404 779 c 0,28,29
 1404 563 1404 563 1311 389 c 1,30,-1
 2457 389 l 1,31,-1
 2457 779 l 2,32,33
 2457 941 2457 941 2355 1055 c 256,34,35
 2252 1169 2252 1169 2106 1169 c 256,36,37
 1961 1169 1961 1169 1858 1055 c 256,38,39
 1755 941 1755 941 1755 779 c 1,40,-1
 1404 779 l 1,41,42
 1404 1102 1404 1102 1610 1331 c 256,43,44
 1816 1560 1816 1560 2106 1559 c 256,45,46
 2397 1559 2397 1559 2603 1331 c 256,47,48
 2809 1102 2809 1102 2808 779 c 2,49,-1
 2808 389 l 1,50,-1
 3862 389 l 1,51,-1
 3862 779 l 2,52,53
 3862 941 3862 941 3759 1055 c 256,54,55
 3656 1169 3656 1169 3511 1169 c 256,56,57
 3366 1169 3366 1169 3262 1055 c 256,58,59
 3159 941 3159 941 3159 779 c 1,60,-1
 2808 779 l 1,61,62
 2808 1102 2808 1102 3014 1331 c 256,63,64
 3220 1560 3220 1560 3511 1559 c 256,65,66
 3802 1559 3802 1559 4007 1331 c 256,67,68
 4213 1102 4213 1102 4213 779 c 2,69,-1
 4213 -779 l 2,70,71
 4213 -1102 4213 -1102 4007 -1331 c 256,72,73
 3802 -1559 3802 -1559 3511 -1559 c 1,0,1
EndSplineSet
Validated: 37
Substitution2: "WithCartouche" mamei_c
EndChar

StartChar: nanaq
Encoding: 24 60852 24
Width: 1404
GlyphClass: 2
Flags: W
HStem: 0 389<502.511 901.183> 1169 390<497.577 900.049> 1559 391<702 1002.16>
VStem: 0 351<541.739 1017.6> 1053 351<547.99 1015.7>
AnchorPoint: "tone" 702 1559 basechar 0
LayerCount: 2
Fore
SplineSet
702 389 m 256,0,1
 847 389 847 389 949 505 c 0,2,3
 1053 618 1053 618 1053 779 c 256,4,5
 1053 941 1053 941 949 1055 c 0,6,7
 848 1169 848 1169 702 1169 c 256,8,9
 557 1169 557 1169 454 1055 c 256,10,11
 351 941 351 941 351 779 c 256,12,13
 351 617 351 617 454 505 c 0,14,15
 557 389 557 389 702 389 c 256,0,1
702 0 m 256,16,17
 411 0 411 0 206 229 c 256,18,19
 0 458 0 458 0 779 c 0,20,21
 0 1102 0 1102 206 1331 c 256,22,23
 412 1560 412 1560 702 1559 c 256,24,25
 993 1559 993 1559 1198 1331 c 256,26,27
 1404 1102 1404 1102 1404 779 c 0,28,29
 1404 457 1404 457 1198 229 c 256,30,31
 993 0 993 0 702 0 c 256,16,17
702 1559 m 1,32,-1
 702 1950 l 1,33,34
 993 1950 993 1950 1198 2064 c 256,35,36
 1404 2178 1404 2178 1404 2340 c 1,37,38
 1404 2017 1404 2017 1198 1788 c 256,39,40
 993 1559 993 1559 702 1559 c 1,32,-1
EndSplineSet
Validated: 37
Substitution2: "WithCartouche" nanaq_c
EndChar

StartChar: pipoq
Encoding: 25 60850 25
Width: 1404
GlyphClass: 2
Flags: W
HStem: 0 389<502.511 902.72> 1169 390<497.577 900.049>
VStem: 0 351<541.739 1017.6> 1053 351<-1129.42 101 545.262 1014.39>
AnchorPoint: "tone" 702 1559 basechar 0
LayerCount: 2
Fore
SplineSet
702 389 m 256,0,1
 847 389 847 389 949 505 c 0,2,3
 1053 618 1053 618 1053 779 c 256,4,5
 1053 941 1053 941 949 1055 c 0,6,7
 848 1169 848 1169 702 1169 c 256,8,9
 557 1169 557 1169 454 1055 c 256,10,11
 351 941 351 941 351 779 c 256,12,13
 351 617 351 617 454 505 c 0,14,15
 557 389 557 389 702 389 c 256,0,1
702 -1559 m 1,16,17
 847 -1559 847 -1559 950 -1331 c 256,18,19
 1053 -1102 1053 -1102 1053 -779 c 2,20,-1
 1053 101 l 1,21,22
 896 0 896 0 702 0 c 0,23,24
 411 0 411 0 206 229 c 256,25,26
 0 458 0 458 0 779 c 0,27,28
 0 1102 0 1102 206 1331 c 256,29,30
 412 1560 412 1560 702 1559 c 256,31,32
 993 1559 993 1559 1198 1331 c 256,33,34
 1404 1102 1404 1102 1404 779 c 2,35,-1
 1404 -779 l 2,36,37
 1404 -1102 1404 -1102 1198 -1331 c 256,38,39
 993 -1559 993 -1559 702 -1559 c 1,16,17
EndSplineSet
Validated: 33
Substitution2: "WithCartouche" pipoq_c
EndChar

StartChar: aqaq
Encoding: 26 60865 26
Width: 1404
GlyphClass: 2
Flags: W
HStem: 0 389<502.511 902.72> 1169 390<497.577 702>
VStem: 0 351<541.739 1017.6> 1053 351<-1129.42 101 545.262 779>
AnchorPoint: "tone" 702 1559 basechar 0
LayerCount: 2
Fore
SplineSet
702 -1559 m 1,0,1
 847 -1559 847 -1559 950 -1331 c 256,2,3
 1053 -1102 1053 -1102 1053 -779 c 2,4,-1
 1053 101 l 1,5,6
 896 0 896 0 702 0 c 0,7,8
 411 0 411 0 206 229 c 256,9,10
 0 458 0 458 0 779 c 0,11,12
 0 1102 0 1102 206 1331 c 256,13,14
 412 1560 412 1560 702 1559 c 1,15,-1
 702 1169 l 1,16,17
 557 1169 557 1169 454 1055 c 256,18,19
 351 941 351 941 351 779 c 256,20,21
 351 617 351 617 454 505 c 0,22,23
 557 389 557 389 702 389 c 256,24,25
 847 389 847 389 949 505 c 0,26,27
 1053 618 1053 618 1053 779 c 1,28,-1
 1404 779 l 1,29,-1
 1404 -779 l 2,30,31
 1404 -1102 1404 -1102 1198 -1331 c 256,32,33
 993 -1559 993 -1559 702 -1559 c 1,0,1
EndSplineSet
Validated: 33
Substitution2: "WithCartouche" aqaq_c
EndChar

StartChar: rairua
Encoding: 27 60858 27
Width: 2808
GlyphClass: 2
Flags: W
HStem: 0 389<1311 2457> 1169 390<497.577 900.049 1901.58 2311.38>
VStem: 0 351<779 1017> 1053 351<430.866 1015.7> 1404 351<779 1017> 2457 351<-1129.42 0 389 1017>
AnchorPoint: "tone" 702 1559 basechar 0
LayerCount: 2
Fore
SplineSet
2106 -1559 m 1,0,1
 2251 -1559 2251 -1559 2355 -1331 c 256,2,3
 2458 -1102 2458 -1102 2457 -779 c 2,4,-1
 2457 0 l 1,5,-1
 702 0 l 1,6,-1
 870 93 l 1,7,8
 912 145 912 145 950 227 c 0,9,10
 1053 456 1053 456 1053 779 c 0,11,12
 1053 941 1053 941 949 1055 c 0,13,14
 848 1169 848 1169 702 1169 c 256,15,16
 557 1169 557 1169 454 1055 c 256,17,18
 351 941 351 941 351 779 c 1,19,-1
 0 779 l 1,20,21
 0 1102 0 1102 206 1331 c 256,22,23
 412 1560 412 1560 702 1559 c 256,24,25
 993 1559 993 1559 1198 1331 c 256,26,27
 1404 1102 1404 1102 1404 779 c 0,28,29
 1404 563 1404 563 1311 389 c 1,30,-1
 2457 389 l 1,31,-1
 2457 779 l 2,32,33
 2457 941 2457 941 2355 1055 c 256,34,35
 2252 1169 2252 1169 2106 1169 c 256,36,37
 1961 1169 1961 1169 1858 1055 c 256,38,39
 1755 941 1755 941 1755 779 c 1,40,-1
 1404 779 l 1,41,42
 1404 1102 1404 1102 1610 1331 c 256,43,44
 1816 1560 1816 1560 2106 1559 c 256,45,46
 2397 1559 2397 1559 2603 1331 c 256,47,48
 2809 1102 2809 1102 2808 779 c 2,49,-1
 2808 -779 l 2,50,51
 2808 -1102 2808 -1102 2603 -1331 c 256,52,53
 2397 -1559 2397 -1559 2106 -1559 c 1,0,1
EndSplineSet
Validated: 37
Substitution2: "WithCartouche" rairua_c
EndChar

StartChar: saqseoq
Encoding: 28 60857 28
Width: 1404
GlyphClass: 2
Flags: W
HStem: 0 389<502.511 901.183> 1169 390<497.577 900.049>
VStem: 0 351<541.739 1017.6> 1053 351<547.99 1015.7>
AnchorPoint: "diphthong" 1404 -490 basechar 0
AnchorPoint: "tone" 702 1559 basechar 0
LayerCount: 2
Fore
SplineSet
702 389 m 256,0,1
 847 389 847 389 949 505 c 0,2,3
 1053 618 1053 618 1053 779 c 256,4,5
 1053 941 1053 941 949 1055 c 0,6,7
 848 1169 848 1169 702 1169 c 256,8,9
 557 1169 557 1169 454 1055 c 256,10,11
 351 941 351 941 351 779 c 256,12,13
 351 617 351 617 454 505 c 0,14,15
 557 389 557 389 702 389 c 256,0,1
702 0 m 256,16,17
 411 0 411 0 206 229 c 256,18,19
 0 458 0 458 0 779 c 0,20,21
 0 1102 0 1102 206 1331 c 256,22,23
 412 1560 412 1560 702 1559 c 256,24,25
 993 1559 993 1559 1198 1331 c 260,26,27
 1404 1102 1404 1102 1404 779 c 0,28,29
 1404 457 1404 457 1198 229 c 256,30,31
 993 0 993 0 702 0 c 256,16,17
EndSplineSet
Validated: 33
Substitution2: "WithCartouche" saqseoq_c
EndChar

StartChar: titieq
Encoding: 29 60854 29
Width: 2457
GlyphClass: 2
Flags: W
HStem: 0 389<502.511 901.183> 1169 390<497.577 903.122> 1950 390<1553.99 1956.3>
VStem: 0 351<541.739 1017.6> 1053 351<550.719 1014.39 1458 1797> 2106 351<428.576 1797>
CounterMasks: 1 1c
AnchorPoint: "tone" 702 1559 basechar 0
LayerCount: 2
Fore
SplineSet
702 389 m 256,0,1
 847 389 847 389 949 505 c 0,2,3
 1053 618 1053 618 1053 779 c 256,4,5
 1053 941 1053 941 949 1055 c 0,6,7
 848 1169 848 1169 702 1169 c 256,8,9
 557 1169 557 1169 454 1055 c 256,10,11
 351 941 351 941 351 779 c 256,12,13
 351 617 351 617 454 505 c 0,14,15
 557 389 557 389 702 389 c 256,0,1
702 0 m 256,16,17
 411 0 411 0 206 229 c 256,18,19
 0 458 0 458 0 779 c 0,20,21
 0 1102 0 1102 206 1331 c 256,22,23
 412 1560 412 1560 702 1559 c 0,24,25
 896 1559 896 1559 1053 1458 c 1,26,-1
 1053 1559 l 2,27,28
 1053 1882 1053 1882 1259 2111 c 256,29,30
 1465 2340 1465 2340 1755 2340 c 256,31,32
 2046 2340 2046 2340 2252 2111 c 256,33,34
 2458 1882 2458 1882 2457 1559 c 2,35,-1
 2457 779 l 2,36,37
 2457 456 2457 456 2252 227 c 0,38,39
 2046 0 2046 0 1755 0 c 1,40,41
 1900 0 1900 0 2003 227 c 0,42,43
 2106 456 2106 456 2106 779 c 2,44,-1
 2106 1559 l 2,45,46
 2106 1721 2106 1721 2003 1835 c 256,47,48
 1900 1949 1900 1949 1755 1950 c 256,49,50
 1610 1950 1610 1950 1507 1835 c 256,51,52
 1404 1721 1404 1721 1404 1559 c 2,53,-1
 1404 779 l 2,54,55
 1404 457 1404 457 1198 229 c 256,56,57
 993 0 993 0 702 0 c 256,16,17
EndSplineSet
Validated: 33
Substitution2: "WithCartouche" titieq_c
EndChar

StartChar: veva
Encoding: 30 60864 30
Width: 1404
GlyphClass: 2
Flags: W
HStem: 1169 390<351 900.049>
VStem: 0 351<1559 1909.42> 1053 351<428.576 1015.7>
AnchorPoint: "tone" 2106 1559 basechar 0
LayerCount: 2
Fore
SplineSet
702 0 m 1,0,1
 847 0 847 0 950 227 c 0,2,3
 1053 456 1053 456 1053 779 c 0,4,5
 1053 941 1053 941 949 1055 c 0,6,7
 848 1169 848 1169 702 1169 c 2,8,-1
 0 1169 l 1,9,-1
 0 1559 l 2,10,11
 0 1882 0 1882 206 2111 c 0,12,13
 410 2340 410 2340 702 2340 c 1,14,15
 557 2340 557 2340 454 2111 c 256,16,17
 351 1882 351 1882 351 1559 c 1,18,-1
 702 1559 l 2,19,20
 993 1559 993 1559 1198 1331 c 256,21,22
 1404 1102 1404 1102 1404 779 c 256,23,24
 1404 456 1404 456 1198 227 c 0,25,26
 993 0 993 0 702 0 c 1,0,1
EndSplineSet
Validated: 1
Substitution2: "WithCartouche" veva_c
EndChar

StartChar: nhanhoq
Encoding: 31 60860 31
Width: 1404
GlyphClass: 2
Flags: W
HStem: 0 292<542.181 687.278> 487 292<530.204 697.796> 1169 390<497.577 900.049>
VStem: 0 351<779 1017> 263 263<307.118 485.711> 1053 351<541.764 1015.7>
AnchorPoint: "tone" 702 1559 basechar 0
LayerCount: 2
Fore
SplineSet
702 10 m 1024,0,1
614 292 m 0,2,3
 650 292 650 292 676 320 c 0,4,5
 702 349 702 349 702 389 c 0,6,7
 702 430 702 430 676 457 c 0,8,9
 650 486 650 486 614 487 c 0,10,11
 576 487 576 487 552 457 c 0,12,13
 526 429 526 429 526 389 c 0,14,15
 526 350 526 350 552 320 c 0,16,17
 576 292 576 292 614 292 c 0,2,3
614 0 m 0,18,19
 469 0 469 0 366 113 c 0,20,21
 263 229 263 229 263 389 c 0,22,23
 263 551 263 551 366 666 c 0,24,25
 469 779 469 779 614 779 c 256,26,27
 759 779 759 779 862 666 c 0,28,29
 926 594 926 594 950 505 c 1,30,31
 1053 619 1053 619 1053 779 c 0,32,33
 1053 941 1053 941 949 1055 c 0,34,35
 848 1169 848 1169 702 1169 c 256,36,37
 557 1169 557 1169 454 1055 c 256,38,39
 351 941 351 941 351 779 c 1,40,-1
 0 779 l 1,41,42
 0 1102 0 1102 206 1331 c 256,43,44
 412 1560 412 1560 702 1559 c 256,45,46
 993 1559 993 1559 1198 1331 c 256,47,48
 1404 1102 1404 1102 1404 779 c 0,49,50
 1404 457 1404 457 1198 229 c 256,51,52
 992 0 992 0 702 0 c 1,53,-1
 702 10 l 1,54,55
 660 0 660 0 614 0 c 0,18,19
EndSplineSet
Validated: 33
Substitution2: "WithCartouche" nhanhoq_c
EndChar

StartChar: shoshia
Encoding: 32 60863 32
Width: 1404
GlyphClass: 2
Flags: W
HStem: 0 389<502.511 902.72> 1169 390<497.577 1001.67>
VStem: 0 351<541.739 1017.6> 1053 351<-1129.42 101 545.262 779>
AnchorPoint: "tone" 702 1559 basechar 0
LayerCount: 2
Fore
SplineSet
702 -1559 m 1,0,1
 847 -1559 847 -1559 950 -1331 c 256,2,3
 1053 -1102 1053 -1102 1053 -779 c 2,4,-1
 1053 101 l 1,5,6
 896 0 896 0 702 0 c 0,7,8
 411 0 411 0 206 229 c 256,9,10
 0 458 0 458 0 779 c 0,11,12
 0 1102 0 1102 206 1331 c 256,13,14
 412 1560 412 1560 702 1559 c 256,15,16
 993 1559 993 1559 1198 1674 c 256,17,18
 1404 1788 1404 1788 1404 1950 c 1,19,20
 1404 1627 1404 1627 1198 1398 c 256,21,22
 992 1169 992 1169 702 1169 c 0,23,24
 557 1169 557 1169 454 1055 c 256,25,26
 351 941 351 941 351 779 c 256,27,28
 351 617 351 617 454 505 c 0,29,30
 557 389 557 389 702 389 c 256,31,32
 847 389 847 389 949 505 c 0,33,34
 1053 618 1053 618 1053 779 c 1,35,-1
 1404 779 l 1,36,-1
 1404 -779 l 2,37,38
 1404 -1102 1404 -1102 1198 -1331 c 256,39,40
 993 -1559 993 -1559 702 -1559 c 1,0,1
EndSplineSet
Validated: 33
Substitution2: "WithCartouche" shoshia_c
EndChar

StartChar: chichao
Encoding: 33 60862 33
Width: 1404
GlyphClass: 2
Flags: W
HStem: 0 389<502.511 1002.16> 1169 390<497.577 1001.67>
VStem: 0 351<541.739 1017.6>
AnchorPoint: "tone" 702 1559 basechar 0
LayerCount: 2
Fore
SplineSet
702 0 m 256,0,1
 411 0 411 0 206 229 c 256,2,3
 0 458 0 458 0 779 c 0,4,5
 0 1102 0 1102 206 1331 c 256,6,7
 412 1560 412 1560 702 1559 c 256,8,9
 993 1559 993 1559 1198 1674 c 256,10,11
 1404 1788 1404 1788 1404 1950 c 1,12,13
 1404 1627 1404 1627 1198 1398 c 256,14,15
 992 1169 992 1169 702 1169 c 0,16,17
 557 1169 557 1169 454 1055 c 256,18,19
 351 941 351 941 351 779 c 256,20,21
 351 617 351 617 454 505 c 0,22,23
 557 389 557 389 702 389 c 0,24,25
 993 389 993 389 1198 503 c 256,26,27
 1404 617 1404 617 1404 779 c 1,28,29
 1404 456 1404 456 1198 229 c 0,30,31
 993 0 993 0 702 0 c 256,0,1
EndSplineSet
Validated: 33
Substitution2: "WithCartouche" chichao_c
EndChar

StartChar: zozeo
Encoding: 34 60855 34
Width: 1404
GlyphClass: 2
Flags: W
HStem: 0 389<588.25 1053 1404 2406.48> 779 0<2808 2808> 1169 390<497.577 900.049>
VStem: 0 351<779 1017> 87 351<-1129.42 -154.576> 1053 351<-1129.42 0 389 1014.39>
AnchorPoint: "tone" 702 1559 basechar 0
LayerCount: 2
Fore
SplineSet
745 -1558 m 257,0,1
 745 -1558 745 -1558 745 -1558 c 257,0,1
745 -1554 m 1,2,3
 863 -1525 863 -1525 950 -1331 c 0,4,5
 1053 -1102 1053 -1102 1053 -779 c 2,6,-1
 1053 0 l 1,7,-1
 789 0 l 2,8,9
 644 0 644 0 542 -114 c 0,10,11
 438 -228 438 -228 438 -389 c 2,12,-1
 438 -779 l 2,13,14
 438 -1102 438 -1102 540 -1331 c 0,15,16
 629 -1525 629 -1525 745 -1554 c 1,2,3
702 -1559 m 1,17,18
 718 -1559 718 -1559 732 -1558 c 1,19,20
 477 -1537 477 -1537 292 -1331 c 0,21,22
 86 -1102 86 -1102 87 -779 c 2,23,-1
 87 -389 l 2,24,25
 87 -67 87 -67 292 160 c 0,26,27
 467 354 467 354 702 384 c 1,28,-1
 702 389 l 1,29,-1
 1053 389 l 1,30,-1
 1053 779 l 2,31,32
 1053 941 1053 941 949 1055 c 0,33,34
 848 1169 848 1169 702 1169 c 256,35,36
 557 1169 557 1169 454 1055 c 256,37,38
 351 941 351 941 351 779 c 1,39,-1
 0 779 l 1,40,41
 0 1102 0 1102 206 1331 c 256,42,43
 412 1560 412 1560 702 1559 c 256,44,45
 993 1559 993 1559 1198 1331 c 256,46,47
 1404 1102 1404 1102 1404 779 c 2,48,-1
 1404 389 l 1,49,-1
 2106 389 l 2,50,51
 2397 389 2397 389 2603 503 c 256,52,53
 2809 617 2809 617 2808 779 c 1,54,55
 2808 456 2808 456 2603 229 c 0,56,57
 2397 0 2397 0 2106 0 c 2,58,-1
 1404 0 l 1,59,-1
 1404 -779 l 2,60,61
 1404 -1102 1404 -1102 1198 -1331 c 0,62,63
 1013 -1537 1013 -1537 759 -1558 c 1,64,65
 774 -1560 774 -1560 789 -1559 c 1,66,67
 768 -1559 768 -1559 745 -1558 c 0,68,69
 723 -1559 723 -1559 702 -1559 c 1,17,18
EndSplineSet
Validated: 37
Substitution2: "WithCartouche" zozeo_c
EndChar

StartChar: rising_falling
Encoding: 35 60883 35
Width: 0
GlyphClass: 4
Flags: W
HStem: 2536 390<414.742 813.489>
VStem: -87 350<2146 2383.22> 965 351<1795.58 2383.26>
AnchorPoint: "tone" 777 1386 mark 0
LayerCount: 2
Fore
SplineSet
614 1365 m 1,0,1
 759 1365 759 1365 862 1594 c 256,2,3
 965 1823 965 1823 965 2146 c 0,4,5
 965 2308 965 2308 862 2420 c 0,6,7
 759 2536 759 2536 614 2536 c 256,8,9
 469 2536 469 2536 366 2420 c 0,10,11
 263 2307 263 2307 263 2146 c 1,12,-1
 -87 2146 l 1,13,14
 -87 2468 -87 2468 118 2696 c 0,15,16
 324 2926 324 2926 614 2926 c 256,17,18
 905 2926 905 2926 1110 2696 c 0,19,20
 1316 2467 1316 2467 1316 2146 c 0,21,22
 1316 1823 1316 1823 1110 1594 c 256,23,24
 905 1365 905 1365 614 1365 c 1,0,1
EndSplineSet
Validated: 1
EndChar

StartChar: bubue_c
Encoding: 36 -1 36
Width: 1404
GlyphClass: 2
Flags: WO
HStem: 1169 390<497.577 900.049> 3120 391<0 1404>
VStem: 0 351<779 1017> 1053 351<428.576 1015.7>
AnchorPoint: "diphthong" 1404 -490 basechar 0
AnchorPoint: "tone" 702 1559 basechar 0
LayerCount: 2
Fore
SplineSet
702 0 m 1,0,1
 847 0 847 0 950 227 c 0,2,3
 1053 456 1053 456 1053 779 c 0,4,5
 1053 941 1053 941 949 1055 c 0,6,7
 848 1169 848 1169 702 1169 c 256,8,9
 557 1169 557 1169 454 1055 c 256,10,11
 351 941 351 941 351 779 c 1,12,-1
 0 779 l 1,13,14
 0 1102 0 1102 206 1331 c 256,15,16
 412 1560 412 1560 702 1559 c 256,17,18
 993 1559 993 1559 1198 1331 c 256,19,20
 1404 1102 1404 1102 1404 779 c 256,21,22
 1404 456 1404 456 1198 227 c 0,23,24
 993 0 993 0 702 0 c 1,0,1
0 3120 m 1,25,-1
 0 3511 l 1,26,-1
 1404 3511 l 1,27,-1
 1404 3120 l 1,28,-1
 0 3120 l 1,25,-1
EndSplineSet
EndChar

StartChar: cecoa_c
Encoding: 37 -1 37
Width: 1404
GlyphClass: 2
Flags: W
HStem: 0 389<502.511 1002.16> 1169 390<497.577 702> 3120 391<0 1404>
VStem: 0 351<541.739 1017.6>
AnchorPoint: "tone" 702 1559 basechar 0
AnchorPoint: "diphthong" 1404 -490 basechar 0
LayerCount: 2
Fore
SplineSet
702 0 m 256,0,1
 411 0 411 0 206 229 c 256,2,3
 0 458 0 458 0 779 c 0,4,5
 0 1102 0 1102 206 1331 c 256,6,7
 412 1560 412 1560 702 1559 c 1,8,-1
 702 1169 l 1,9,10
 557 1169 557 1169 454 1055 c 256,11,12
 351 941 351 941 351 779 c 256,13,14
 351 617 351 617 454 505 c 0,15,16
 557 389 557 389 702 389 c 0,17,18
 993 389 993 389 1198 503 c 256,19,20
 1404 617 1404 617 1404 779 c 1,21,22
 1404 456 1404 456 1198 229 c 0,23,24
 993 0 993 0 702 0 c 256,0,1
0 3120 m 5,25,-1
 0 3511 l 5,26,-1
 1404 3511 l 1,27,-1
 1404 3120 l 1,28,-1
 0 3120 l 5,25,-1
EndSplineSet
Validated: 33
EndChar

StartChar: dudeo_c
Encoding: 38 -1 38
Width: 1404
GlyphClass: 2
Flags: W
HStem: 0 389<400.711 901.183> 779 294<529.95 685.789> 1267 292<530.204 699.286> 3120 391<0 1404>
VStem: 263 263<1075.6 1265.68> 1053 351<547.99 1017.6>
AnchorPoint: "tone" 702 1559 basechar 0
LayerCount: 2
Fore
SplineSet
950 1055 m 257,0,1
 950 1055 950 1055 950 1055 c 257,0,1
614 1073 m 0,2,3
 650 1073 650 1073 676 1101 c 256,4,5
 702 1129 702 1129 702 1169 c 256,6,7
 702 1210 702 1210 676 1238 c 0,8,9
 650 1267 650 1267 614 1267 c 0,10,11
 576 1267 576 1267 552 1238 c 0,12,13
 526 1210 526 1210 526 1169 c 256,14,15
 526 1128 526 1128 552 1101 c 0,16,17
 576 1073 576 1073 614 1073 c 0,2,3
702 0 m 0,18,19
 410 0 410 0 204 229 c 0,20,21
 0 456 0 456 0 779 c 1,22,23
 0 617 0 617 204 503 c 0,24,25
 410 389 410 389 702 389 c 0,26,27
 847 389 847 389 949 505 c 0,28,29
 1053 618 1053 618 1053 779 c 256,30,31
 1053 941 1053 941 950 1055 c 1,32,33
 926 965 926 965 862 893 c 0,34,35
 759 779 759 779 614 779 c 256,36,37
 469 779 469 779 366 893 c 256,38,39
 263 1007 263 1007 263 1169 c 256,40,41
 263 1331 263 1331 366 1445 c 256,42,43
 469 1559 469 1559 614 1559 c 0,44,45
 660 1559 660 1559 702 1548 c 1,46,-1
 702 1559 l 1,47,48
 993 1559 993 1559 1198 1331 c 256,49,50
 1404 1102 1404 1102 1404 779 c 0,51,52
 1404 457 1404 457 1198 229 c 256,53,54
 993 0 993 0 702 0 c 0,18,19
0 3120 m 5,55,-1
 0 3511 l 5,56,-1
 1404 3511 l 1,57,-1
 1404 3120 l 1,58,-1
 0 3120 l 5,55,-1
EndSplineSet
Validated: 1
EndChar

StartChar: fofuaq_c
Encoding: 39 -1 39
Width: 1404
GlyphClass: 2
Flags: W
HStem: 1169 390<497.577 900.049> 3120 391<0 1404>
VStem: 0 351<779 1017> 1053 351<-1129.42 1014.39>
AnchorPoint: "tone" 702 1559 basechar 0
AnchorPoint: "diphthong" 1404 -490 basechar 0
LayerCount: 2
Fore
SplineSet
702 -1559 m 1,0,1
 847 -1559 847 -1559 950 -1331 c 256,2,3
 1053 -1102 1053 -1102 1053 -779 c 2,4,-1
 1053 779 l 2,5,6
 1053 941 1053 941 949 1055 c 0,7,8
 848 1169 848 1169 702 1169 c 256,9,10
 557 1169 557 1169 454 1055 c 256,11,12
 351 941 351 941 351 779 c 1,13,-1
 0 779 l 1,14,15
 0 1102 0 1102 206 1331 c 256,16,17
 412 1560 412 1560 702 1559 c 256,18,19
 993 1559 993 1559 1198 1331 c 256,20,21
 1404 1102 1404 1102 1404 779 c 2,22,-1
 1404 -779 l 2,23,24
 1404 -1102 1404 -1102 1198 -1331 c 256,25,26
 993 -1559 993 -1559 702 -1559 c 1,0,1
0 3120 m 5,27,-1
 0 3511 l 5,28,-1
 1404 3511 l 1,29,-1
 1404 3120 l 1,30,-1
 0 3120 l 5,27,-1
EndSplineSet
Validated: 33
EndChar

StartChar: gugui_c
Encoding: 40 -1 40
Width: 1841
GlyphClass: 2
Flags: W
HStem: 0 389<502.511 901.183 1555.51 1958.49> 1169 390<497.577 702> 3120 391<0 1842>
VStem: 0 351<541.739 1017.6> 1053 351<545.262 779>
AnchorPoint: "tone" 702 1559 basechar 0
AnchorPoint: "diphthong" 1755 -490 basechar 0
LayerCount: 2
Fore
SplineSet
1228 263 m 257,0,1
 1228 263 1228 263 1228 263 c 257,0,1
702 0 m 256,2,3
 411 0 411 0 206 229 c 256,4,5
 0 458 0 458 0 779 c 0,6,7
 0 1102 0 1102 206 1331 c 256,8,9
 412 1560 412 1560 702 1559 c 1,10,-1
 702 1169 l 1,11,12
 557 1169 557 1169 454 1055 c 256,13,14
 351 941 351 941 351 779 c 256,15,16
 351 617 351 617 454 505 c 0,17,18
 557 389 557 389 702 389 c 256,19,20
 847 389 847 389 949 505 c 0,21,22
 1053 618 1053 618 1053 779 c 1,23,-1
 1404 779 l 1,24,25
 1404 617 1404 617 1507 505 c 0,26,27
 1610 389 1610 389 1755 389 c 0,28,29
 1827 389 1827 389 1892 420 c 0,30,31
 1954 449 1954 449 2003 503 c 1,32,-1
 2252 229 l 1,33,34
 2154 121 2154 121 2028 60 c 0,35,36
 1897 0 1897 0 1755 0 c 0,37,38
 1464 0 1464 0 1259 229 c 0,39,40
 1243 245 1243 245 1228 263 c 1,41,42
 1213 245 1213 245 1198 229 c 0,43,44
 993 0 993 0 702 0 c 256,2,3
0 3120 m 5,45,-1
 0 3511 l 5,46,-1
 1842 3511 l 1,47,-1
 1842 3120 l 1,48,-1
 0 3120 l 5,45,-1
EndSplineSet
Validated: 33
EndChar

StartChar: hehaq_c
Encoding: 41 -1 41
Width: 1404
GlyphClass: 2
Flags: W
HStem: 0 389<702 1053 1404 2406.48> 779 0<2808 2808> 1169 390<497.577 900.049> 3120 391<0 1404>
VStem: 0 351<779 1017> 1053 351<-1129.42 0 389 1014.39>
AnchorPoint: "tone" 702 1559 basechar 0
LayerCount: 2
Fore
SplineSet
702 -1559 m 1,0,1
 847 -1559 847 -1559 950 -1331 c 256,2,3
 1053 -1102 1053 -1102 1053 -779 c 2,4,-1
 1053 0 l 1,5,-1
 702 0 l 1,6,-1
 702 389 l 1,7,-1
 1053 389 l 1,8,-1
 1053 779 l 2,9,10
 1053 941 1053 941 949 1055 c 0,11,12
 848 1169 848 1169 702 1169 c 256,13,14
 557 1169 557 1169 454 1055 c 256,15,16
 351 941 351 941 351 779 c 1,17,-1
 0 779 l 1,18,19
 0 1102 0 1102 206 1331 c 256,20,21
 412 1560 412 1560 702 1559 c 256,22,23
 993 1559 993 1559 1198 1331 c 256,24,25
 1404 1102 1404 1102 1404 779 c 2,26,-1
 1404 389 l 1,27,-1
 2106 389 l 2,28,29
 2397 389 2397 389 2603 503 c 256,30,31
 2809 617 2809 617 2808 779 c 1,32,33
 2808 456 2808 456 2603 229 c 0,34,35
 2397 0 2397 0 2106 0 c 2,36,-1
 1404 0 l 1,37,-1
 1404 -779 l 2,38,39
 1404 -1102 1404 -1102 1198 -1331 c 256,40,41
 993 -1559 993 -1559 702 -1559 c 1,0,1
0 3120 m 5,42,-1
 0 3511 l 5,43,-1
 1404 3511 l 1,44,-1
 1404 3120 l 1,45,-1
 0 3120 l 5,42,-1
EndSplineSet
Validated: 41
EndChar

StartChar: jujuo_c
Encoding: 42 -1 42
Width: 2457
GlyphClass: 2
Flags: W
HStem: 1169 390<497.577 900.049 1550.58 1953.18> 3120 391<0 2457>
VStem: 0 351<779 1017> 1053 351<779 1014.39> 2106 351<428.576 1017>
CounterMasks: 1 38
AnchorPoint: "tone" 702 1559 basechar 0
LayerCount: 2
Fore
SplineSet
1755 0 m 1,0,1
 1900 0 1900 0 2003 227 c 0,2,3
 2106 456 2106 456 2106 779 c 0,4,5
 2106 941 2106 941 2003 1055 c 256,6,7
 1900 1169 1900 1169 1755 1169 c 256,8,9
 1610 1169 1610 1169 1507 1055 c 256,10,11
 1404 941 1404 941 1404 779 c 1,12,-1
 1053 779 l 1,13,14
 1053 941 1053 941 949 1055 c 0,15,16
 848 1169 848 1169 702 1169 c 256,17,18
 557 1169 557 1169 454 1055 c 256,19,20
 351 941 351 941 351 779 c 1,21,-1
 0 779 l 1,22,23
 0 1102 0 1102 206 1331 c 256,24,25
 412 1560 412 1560 702 1559 c 256,26,27
 993 1559 993 1559 1198 1331 c 0,28,29
 1213 1315 1213 1315 1228 1296 c 1,30,31
 1243 1314 1243 1314 1259 1331 c 0,32,33
 1465 1560 1465 1560 1755 1559 c 256,34,35
 2046 1559 2046 1559 2252 1331 c 256,36,37
 2458 1102 2458 1102 2457 779 c 256,38,39
 2457 456 2457 456 2252 227 c 0,40,41
 2046 0 2046 0 1755 0 c 1,0,1
0 3120 m 5,42,-1
 0 3511 l 5,43,-1
 2457 3511 l 1,44,-1
 2457 3120 l 1,45,-1
 0 3120 l 5,42,-1
EndSplineSet
Validated: 33
EndChar

StartChar: kikue_c
Encoding: 43 -1 43
Width: 1404
GlyphClass: 2
Flags: W
HStem: -1014 469<553.944 849.056> 0 389<502.511 1002.16> 1169 390<497.577 702> 3120 391<0 1404>
VStem: 0 351<541.739 1017.6> 491 422<-942.837 -616.163>
AnchorPoint: "tone" 702 1559 basechar 0
LayerCount: 2
Fore
SplineSet
702 -1014 m 0,0,1
 614 -1014 614 -1014 552 -945 c 0,2,3
 492 -876 492 -876 491 -779 c 0,4,5
 491 -683 491 -683 552 -614 c 0,6,7
 614 -545 614 -545 702 -545 c 0,8,9
 789 -545 789 -545 851 -614 c 256,10,11
 913 -683 913 -683 913 -779 c 0,12,13
 913 -877 913 -877 851 -945 c 256,14,15
 789 -1014 789 -1014 702 -1014 c 0,0,1
702 0 m 256,16,17
 411 0 411 0 206 229 c 256,18,19
 0 458 0 458 0 779 c 0,20,21
 0 1102 0 1102 206 1331 c 256,22,23
 412 1560 412 1560 702 1559 c 1,24,-1
 702 1169 l 1,25,26
 557 1169 557 1169 454 1055 c 256,27,28
 351 941 351 941 351 779 c 256,29,30
 351 617 351 617 454 505 c 0,31,32
 557 389 557 389 702 389 c 0,33,34
 993 389 993 389 1198 503 c 256,35,36
 1404 617 1404 617 1404 779 c 1,37,38
 1404 456 1404 456 1198 229 c 0,39,40
 993 0 993 0 702 0 c 256,16,17
0 3120 m 5,41,-1
 0 3511 l 5,42,-1
 1404 3511 l 1,43,-1
 1404 3120 l 1,44,-1
 0 3120 l 5,41,-1
EndSplineSet
Validated: 33
EndChar

StartChar: laoliq_c
Encoding: 44 -1 44
Width: 2808
GlyphClass: 2
Flags: W
HStem: -1014 469<1603.19 1902.06> 0 389<1311 2457> 1169 390<497.577 900.049 1901.58 2311.38> 3120 391<0 2808>
VStem: 0 351<779 1017> 1053 351<430.866 1015.7> 1404 351<779 1017> 1545 421<-955.36 -616.163> 2457 351<389 1017>
AnchorPoint: "tone" 702 1559 basechar 0
LayerCount: 2
Fore
SplineSet
1755 -1014 m 0,0,1
 1667 -1014 1667 -1014 1607 -945 c 0,2,3
 1545 -876 1545 -876 1545 -779 c 0,4,5
 1545 -683 1545 -683 1607 -614 c 0,6,7
 1667 -545 1667 -545 1755 -545 c 0,8,9
 1842 -545 1842 -545 1904 -614 c 256,10,11
 1966 -683 1966 -683 1966 -779 c 0,12,13
 1966 -877 1966 -877 1904 -945 c 256,14,15
 1842 -1014 1842 -1014 1755 -1014 c 0,0,1
702 0 m 1,16,-1
 870 93 l 1,17,18
 912 145 912 145 950 227 c 0,19,20
 1053 456 1053 456 1053 779 c 0,21,22
 1053 941 1053 941 949 1055 c 0,23,24
 848 1169 848 1169 702 1169 c 256,25,26
 557 1169 557 1169 454 1055 c 256,27,28
 351 941 351 941 351 779 c 1,29,-1
 0 779 l 1,30,31
 0 1102 0 1102 206 1331 c 256,32,33
 412 1560 412 1560 702 1559 c 256,34,35
 993 1559 993 1559 1198 1331 c 256,36,37
 1404 1102 1404 1102 1404 779 c 0,38,39
 1404 563 1404 563 1311 389 c 1,40,-1
 2457 389 l 1,41,-1
 2457 779 l 2,42,43
 2457 941 2457 941 2355 1055 c 256,44,45
 2252 1169 2252 1169 2106 1169 c 256,46,47
 1961 1169 1961 1169 1858 1055 c 256,48,49
 1755 941 1755 941 1755 779 c 1,50,-1
 1404 779 l 1,51,52
 1404 1102 1404 1102 1610 1331 c 256,53,54
 1816 1560 1816 1560 2106 1559 c 256,55,56
 2397 1559 2397 1559 2603 1331 c 256,57,58
 2809 1102 2809 1102 2808 779 c 2,59,-1
 2808 0 l 1,60,-1
 702 0 l 1,16,-1
0 3120 m 5,61,-1
 0 3511 l 5,62,-1
 2808 3511 l 1,63,-1
 2808 3120 l 1,64,-1
 0 3120 l 5,61,-1
EndSplineSet
Validated: 37
EndChar

StartChar: mamei_c
Encoding: 45 -1 45
Width: 4212
GlyphClass: 2
Flags: W
HStem: 0 389<1311 2457 2808 3862> 1169 390<497.577 900.049 1901.58 2311.38 3305.94 3709.05> 3120 391<0 4213>
VStem: 0 351<779 1017> 1053 351<430.866 1015.7> 1404 351<779 1017> 2457 351<389 1017> 3862 351<-1129.42 0 389 1017>
AnchorPoint: "tone" 702 1559 basechar 0
LayerCount: 2
Fore
SplineSet
3511 -1559 m 1,0,1
 3656 -1559 3656 -1559 3759 -1331 c 256,2,3
 3862 -1102 3862 -1102 3862 -779 c 2,4,-1
 3862 0 l 1,5,-1
 702 0 l 1,6,-1
 870 93 l 1,7,8
 912 145 912 145 950 227 c 0,9,10
 1053 456 1053 456 1053 779 c 0,11,12
 1053 941 1053 941 949 1055 c 0,13,14
 848 1169 848 1169 702 1169 c 256,15,16
 557 1169 557 1169 454 1055 c 256,17,18
 351 941 351 941 351 779 c 1,19,-1
 0 779 l 1,20,21
 0 1102 0 1102 206 1331 c 256,22,23
 412 1560 412 1560 702 1559 c 256,24,25
 993 1559 993 1559 1198 1331 c 256,26,27
 1404 1102 1404 1102 1404 779 c 0,28,29
 1404 563 1404 563 1311 389 c 1,30,-1
 2457 389 l 1,31,-1
 2457 779 l 2,32,33
 2457 941 2457 941 2355 1055 c 256,34,35
 2252 1169 2252 1169 2106 1169 c 256,36,37
 1961 1169 1961 1169 1858 1055 c 256,38,39
 1755 941 1755 941 1755 779 c 1,40,-1
 1404 779 l 1,41,42
 1404 1102 1404 1102 1610 1331 c 256,43,44
 1816 1560 1816 1560 2106 1559 c 256,45,46
 2397 1559 2397 1559 2603 1331 c 256,47,48
 2809 1102 2809 1102 2808 779 c 2,49,-1
 2808 389 l 1,50,-1
 3862 389 l 1,51,-1
 3862 779 l 2,52,53
 3862 941 3862 941 3759 1055 c 256,54,55
 3656 1169 3656 1169 3511 1169 c 256,56,57
 3366 1169 3366 1169 3262 1055 c 256,58,59
 3159 941 3159 941 3159 779 c 1,60,-1
 2808 779 l 1,61,62
 2808 1102 2808 1102 3014 1331 c 256,63,64
 3220 1560 3220 1560 3511 1559 c 256,65,66
 3802 1559 3802 1559 4007 1331 c 256,67,68
 4213 1102 4213 1102 4213 779 c 2,69,-1
 4213 -779 l 2,70,71
 4213 -1102 4213 -1102 4007 -1331 c 256,72,73
 3802 -1559 3802 -1559 3511 -1559 c 1,0,1
0 3120 m 5,74,-1
 0 3511 l 5,75,-1
 4213 3511 l 1,76,-1
 4213 3120 l 1,77,-1
 0 3120 l 5,74,-1
EndSplineSet
Validated: 37
EndChar

StartChar: nanaq_c
Encoding: 46 -1 46
Width: 1404
GlyphClass: 2
Flags: W
HStem: 0 389<502.511 901.183> 1169 390<497.577 900.049> 1559 391<702 1002.16> 3120 391<0 1404>
VStem: 0 351<541.739 1017.6> 1053 351<547.99 1015.7>
AnchorPoint: "tone" 702 1559 basechar 0
LayerCount: 2
Fore
SplineSet
702 389 m 256,0,1
 847 389 847 389 949 505 c 0,2,3
 1053 618 1053 618 1053 779 c 256,4,5
 1053 941 1053 941 949 1055 c 0,6,7
 848 1169 848 1169 702 1169 c 256,8,9
 557 1169 557 1169 454 1055 c 256,10,11
 351 941 351 941 351 779 c 256,12,13
 351 617 351 617 454 505 c 0,14,15
 557 389 557 389 702 389 c 256,0,1
702 0 m 256,16,17
 411 0 411 0 206 229 c 256,18,19
 0 458 0 458 0 779 c 0,20,21
 0 1102 0 1102 206 1331 c 256,22,23
 412 1560 412 1560 702 1559 c 256,24,25
 993 1559 993 1559 1198 1331 c 256,26,27
 1404 1102 1404 1102 1404 779 c 0,28,29
 1404 457 1404 457 1198 229 c 256,30,31
 993 0 993 0 702 0 c 256,16,17
702 1559 m 1,32,-1
 702 1950 l 1,33,34
 993 1950 993 1950 1198 2064 c 256,35,36
 1404 2178 1404 2178 1404 2340 c 1,37,38
 1404 2017 1404 2017 1198 1788 c 256,39,40
 993 1559 993 1559 702 1559 c 1,32,-1
0 3120 m 5,41,-1
 0 3511 l 5,42,-1
 1404 3511 l 1,43,-1
 1404 3120 l 1,44,-1
 0 3120 l 5,41,-1
EndSplineSet
Validated: 37
EndChar

StartChar: pipoq_c
Encoding: 47 -1 47
Width: 1404
GlyphClass: 2
Flags: W
HStem: 0 389<502.511 902.72> 1169 390<497.577 900.049> 3120 391<0 1404>
VStem: 0 351<541.739 1017.6> 1053 351<-1129.42 101 545.262 1014.39>
AnchorPoint: "tone" 702 1559 basechar 0
LayerCount: 2
Fore
SplineSet
702 389 m 256,0,1
 847 389 847 389 949 505 c 0,2,3
 1053 618 1053 618 1053 779 c 256,4,5
 1053 941 1053 941 949 1055 c 0,6,7
 848 1169 848 1169 702 1169 c 256,8,9
 557 1169 557 1169 454 1055 c 256,10,11
 351 941 351 941 351 779 c 256,12,13
 351 617 351 617 454 505 c 0,14,15
 557 389 557 389 702 389 c 256,0,1
702 -1559 m 1,16,17
 847 -1559 847 -1559 950 -1331 c 256,18,19
 1053 -1102 1053 -1102 1053 -779 c 2,20,-1
 1053 101 l 1,21,22
 896 0 896 0 702 0 c 0,23,24
 411 0 411 0 206 229 c 256,25,26
 0 458 0 458 0 779 c 0,27,28
 0 1102 0 1102 206 1331 c 256,29,30
 412 1560 412 1560 702 1559 c 256,31,32
 993 1559 993 1559 1198 1331 c 256,33,34
 1404 1102 1404 1102 1404 779 c 2,35,-1
 1404 -779 l 2,36,37
 1404 -1102 1404 -1102 1198 -1331 c 256,38,39
 993 -1559 993 -1559 702 -1559 c 1,16,17
0 3120 m 5,40,-1
 0 3511 l 5,41,-1
 1404 3511 l 1,42,-1
 1404 3120 l 1,43,-1
 0 3120 l 5,40,-1
EndSplineSet
Validated: 33
EndChar

StartChar: aqaq_c
Encoding: 48 -1 48
Width: 1404
GlyphClass: 2
Flags: W
HStem: 0 389<502.511 902.72> 1169 390<497.577 702> 3120 391<0 1404>
VStem: 0 351<541.739 1017.6> 1053 351<-1129.42 101 545.262 779>
AnchorPoint: "tone" 702 1559 basechar 0
LayerCount: 2
Fore
SplineSet
702 -1559 m 1,0,1
 847 -1559 847 -1559 950 -1331 c 256,2,3
 1053 -1102 1053 -1102 1053 -779 c 2,4,-1
 1053 101 l 1,5,6
 896 0 896 0 702 0 c 0,7,8
 411 0 411 0 206 229 c 256,9,10
 0 458 0 458 0 779 c 0,11,12
 0 1102 0 1102 206 1331 c 256,13,14
 412 1560 412 1560 702 1559 c 1,15,-1
 702 1169 l 1,16,17
 557 1169 557 1169 454 1055 c 256,18,19
 351 941 351 941 351 779 c 256,20,21
 351 617 351 617 454 505 c 0,22,23
 557 389 557 389 702 389 c 256,24,25
 847 389 847 389 949 505 c 0,26,27
 1053 618 1053 618 1053 779 c 1,28,-1
 1404 779 l 1,29,-1
 1404 -779 l 2,30,31
 1404 -1102 1404 -1102 1198 -1331 c 256,32,33
 993 -1559 993 -1559 702 -1559 c 1,0,1
0 3120 m 5,34,-1
 0 3511 l 5,35,-1
 1404 3511 l 1,36,-1
 1404 3120 l 1,37,-1
 0 3120 l 5,34,-1
EndSplineSet
Validated: 33
EndChar

StartChar: rairua_c
Encoding: 49 -1 49
Width: 2808
GlyphClass: 2
Flags: W
HStem: 0 389<1311 2457> 1169 390<497.577 900.049 1901.58 2311.38> 3120 391<0 2808>
VStem: 0 351<779 1017> 1053 351<430.866 1015.7> 1404 351<779 1017> 2457 351<-1129.42 0 389 1017>
AnchorPoint: "tone" 702 1559 basechar 0
LayerCount: 2
Fore
SplineSet
2106 -1559 m 1,0,1
 2251 -1559 2251 -1559 2355 -1331 c 256,2,3
 2458 -1102 2458 -1102 2457 -779 c 2,4,-1
 2457 0 l 1,5,-1
 702 0 l 1,6,-1
 870 93 l 1,7,8
 912 145 912 145 950 227 c 0,9,10
 1053 456 1053 456 1053 779 c 0,11,12
 1053 941 1053 941 949 1055 c 0,13,14
 848 1169 848 1169 702 1169 c 256,15,16
 557 1169 557 1169 454 1055 c 256,17,18
 351 941 351 941 351 779 c 1,19,-1
 0 779 l 1,20,21
 0 1102 0 1102 206 1331 c 256,22,23
 412 1560 412 1560 702 1559 c 256,24,25
 993 1559 993 1559 1198 1331 c 256,26,27
 1404 1102 1404 1102 1404 779 c 0,28,29
 1404 563 1404 563 1311 389 c 1,30,-1
 2457 389 l 1,31,-1
 2457 779 l 2,32,33
 2457 941 2457 941 2355 1055 c 256,34,35
 2252 1169 2252 1169 2106 1169 c 256,36,37
 1961 1169 1961 1169 1858 1055 c 256,38,39
 1755 941 1755 941 1755 779 c 1,40,-1
 1404 779 l 1,41,42
 1404 1102 1404 1102 1610 1331 c 256,43,44
 1816 1560 1816 1560 2106 1559 c 256,45,46
 2397 1559 2397 1559 2603 1331 c 256,47,48
 2809 1102 2809 1102 2808 779 c 2,49,-1
 2808 -779 l 2,50,51
 2808 -1102 2808 -1102 2603 -1331 c 256,52,53
 2397 -1559 2397 -1559 2106 -1559 c 1,0,1
0 3120 m 5,54,-1
 0 3511 l 5,55,-1
 2808 3511 l 1,56,-1
 2808 3120 l 1,57,-1
 0 3120 l 5,54,-1
EndSplineSet
Validated: 37
EndChar

StartChar: saqseoq_c
Encoding: 50 -1 50
Width: 1404
GlyphClass: 2
Flags: W
HStem: 0 389<502.511 901.183> 1169 390<497.577 900.049> 3120 391<0 1404>
VStem: 0 351<541.739 1017.6> 1053 351<547.99 1015.7>
AnchorPoint: "tone" 702 1559 basechar 0
AnchorPoint: "diphthong" 1404 -490 basechar 0
LayerCount: 2
Fore
SplineSet
702 389 m 256,0,1
 847 389 847 389 949 505 c 0,2,3
 1053 618 1053 618 1053 779 c 256,4,5
 1053 941 1053 941 949 1055 c 0,6,7
 848 1169 848 1169 702 1169 c 256,8,9
 557 1169 557 1169 454 1055 c 256,10,11
 351 941 351 941 351 779 c 256,12,13
 351 617 351 617 454 505 c 0,14,15
 557 389 557 389 702 389 c 256,0,1
702 0 m 256,16,17
 411 0 411 0 206 229 c 256,18,19
 0 458 0 458 0 779 c 0,20,21
 0 1102 0 1102 206 1331 c 256,22,23
 412 1560 412 1560 702 1559 c 256,24,25
 993 1559 993 1559 1198 1331 c 256,26,27
 1404 1102 1404 1102 1404 779 c 0,28,29
 1404 457 1404 457 1198 229 c 256,30,31
 993 0 993 0 702 0 c 256,16,17
0 3120 m 5,32,-1
 0 3511 l 5,33,-1
 1404 3511 l 1,34,-1
 1404 3120 l 1,35,-1
 0 3120 l 5,32,-1
EndSplineSet
Validated: 33
EndChar

StartChar: titieq_c
Encoding: 51 -1 51
Width: 2457
GlyphClass: 2
Flags: W
HStem: 0 389<502.511 901.183> 1169 390<497.577 903.122> 1950 390<1553.99 1956.3> 3120 391<0 2457>
VStem: 0 351<541.739 1017.6> 1053 351<550.719 1014.39 1458 1797> 2106 351<428.576 1797>
CounterMasks: 1 0e
AnchorPoint: "tone" 702 1559 basechar 0
LayerCount: 2
Fore
SplineSet
702 389 m 256,0,1
 847 389 847 389 949 505 c 0,2,3
 1053 618 1053 618 1053 779 c 256,4,5
 1053 941 1053 941 949 1055 c 0,6,7
 848 1169 848 1169 702 1169 c 256,8,9
 557 1169 557 1169 454 1055 c 256,10,11
 351 941 351 941 351 779 c 256,12,13
 351 617 351 617 454 505 c 0,14,15
 557 389 557 389 702 389 c 256,0,1
702 0 m 256,16,17
 411 0 411 0 206 229 c 256,18,19
 0 458 0 458 0 779 c 0,20,21
 0 1102 0 1102 206 1331 c 256,22,23
 412 1560 412 1560 702 1559 c 0,24,25
 896 1559 896 1559 1053 1458 c 1,26,-1
 1053 1559 l 2,27,28
 1053 1882 1053 1882 1259 2111 c 256,29,30
 1465 2340 1465 2340 1755 2340 c 256,31,32
 2046 2340 2046 2340 2252 2111 c 256,33,34
 2458 1882 2458 1882 2457 1559 c 2,35,-1
 2457 779 l 2,36,37
 2457 456 2457 456 2252 227 c 0,38,39
 2046 0 2046 0 1755 0 c 1,40,41
 1900 0 1900 0 2003 227 c 0,42,43
 2106 456 2106 456 2106 779 c 2,44,-1
 2106 1559 l 2,45,46
 2106 1721 2106 1721 2003 1835 c 256,47,48
 1900 1949 1900 1949 1755 1950 c 256,49,50
 1610 1950 1610 1950 1507 1835 c 256,51,52
 1404 1721 1404 1721 1404 1559 c 2,53,-1
 1404 779 l 2,54,55
 1404 457 1404 457 1198 229 c 256,56,57
 993 0 993 0 702 0 c 256,16,17
0 3120 m 5,58,-1
 0 3511 l 5,59,-1
 2457 3511 l 1,60,-1
 2457 3120 l 1,61,-1
 0 3120 l 5,58,-1
EndSplineSet
Validated: 33
EndChar

StartChar: veva_c
Encoding: 52 -1 52
Width: 1404
GlyphClass: 2
Flags: W
HStem: 1169 390<351 900.049> 3120 391<0 1404>
VStem: 0 351<1559 1909.42> 1053 351<428.576 1015.7>
AnchorPoint: "tone" 2106 1559 basechar 0
LayerCount: 2
Fore
SplineSet
702 0 m 1,0,1
 847 0 847 0 950 227 c 0,2,3
 1053 456 1053 456 1053 779 c 0,4,5
 1053 941 1053 941 949 1055 c 0,6,7
 848 1169 848 1169 702 1169 c 2,8,-1
 0 1169 l 1,9,-1
 0 1559 l 2,10,11
 0 1882 0 1882 206 2111 c 0,12,13
 410 2340 410 2340 702 2340 c 1,14,15
 557 2340 557 2340 454 2111 c 256,16,17
 351 1882 351 1882 351 1559 c 1,18,-1
 702 1559 l 2,19,20
 993 1559 993 1559 1198 1331 c 256,21,22
 1404 1102 1404 1102 1404 779 c 256,23,24
 1404 456 1404 456 1198 227 c 0,25,26
 993 0 993 0 702 0 c 1,0,1
0 3120 m 5,27,-1
 0 3511 l 5,28,-1
 1404 3511 l 1,29,-1
 1404 3120 l 1,30,-1
 0 3120 l 5,27,-1
EndSplineSet
Validated: 1
EndChar

StartChar: nhanhoq_c
Encoding: 53 -1 53
Width: 1404
GlyphClass: 2
Flags: W
HStem: 0 292<542.181 687.278> 487 292<530.204 697.796> 1169 390<497.577 900.049> 3120 391<0 1404>
VStem: 0 351<779 1017> 263 263<307.118 485.711> 1053 351<541.764 1015.7>
AnchorPoint: "tone" 702 1559 basechar 0
LayerCount: 2
Fore
SplineSet
702 10 m 1024,0,1
614 292 m 0,2,3
 650 292 650 292 676 320 c 0,4,5
 702 349 702 349 702 389 c 0,6,7
 702 430 702 430 676 457 c 0,8,9
 650 486 650 486 614 487 c 0,10,11
 576 487 576 487 552 457 c 0,12,13
 526 429 526 429 526 389 c 0,14,15
 526 350 526 350 552 320 c 0,16,17
 576 292 576 292 614 292 c 0,2,3
614 0 m 0,18,19
 469 0 469 0 366 113 c 0,20,21
 263 229 263 229 263 389 c 0,22,23
 263 551 263 551 366 666 c 0,24,25
 469 779 469 779 614 779 c 256,26,27
 759 779 759 779 862 666 c 0,28,29
 926 594 926 594 950 505 c 1,30,31
 1053 619 1053 619 1053 779 c 0,32,33
 1053 941 1053 941 949 1055 c 0,34,35
 848 1169 848 1169 702 1169 c 256,36,37
 557 1169 557 1169 454 1055 c 256,38,39
 351 941 351 941 351 779 c 1,40,-1
 0 779 l 1,41,42
 0 1102 0 1102 206 1331 c 256,43,44
 412 1560 412 1560 702 1559 c 256,45,46
 993 1559 993 1559 1198 1331 c 256,47,48
 1404 1102 1404 1102 1404 779 c 0,49,50
 1404 457 1404 457 1198 229 c 256,51,52
 992 0 992 0 702 0 c 1,53,-1
 702 10 l 1,54,55
 660 0 660 0 614 0 c 0,18,19
0 3120 m 5,56,-1
 0 3511 l 5,57,-1
 1404 3511 l 1,58,-1
 1404 3120 l 1,59,-1
 0 3120 l 5,56,-1
EndSplineSet
Validated: 33
EndChar

StartChar: shoshia_c
Encoding: 54 -1 54
Width: 1404
GlyphClass: 2
Flags: W
HStem: 0 389<502.511 902.72> 1169 390<497.577 1001.67> 3120 391<0 1404>
VStem: 0 351<541.739 1017.6> 1053 351<-1129.42 101 545.262 779>
AnchorPoint: "tone" 702 1559 basechar 0
LayerCount: 2
Fore
SplineSet
702 -1559 m 1,0,1
 847 -1559 847 -1559 950 -1331 c 256,2,3
 1053 -1102 1053 -1102 1053 -779 c 2,4,-1
 1053 101 l 1,5,6
 896 0 896 0 702 0 c 0,7,8
 411 0 411 0 206 229 c 256,9,10
 0 458 0 458 0 779 c 0,11,12
 0 1102 0 1102 206 1331 c 256,13,14
 412 1560 412 1560 702 1559 c 256,15,16
 993 1559 993 1559 1198 1674 c 256,17,18
 1404 1788 1404 1788 1404 1950 c 1,19,20
 1404 1627 1404 1627 1198 1398 c 256,21,22
 992 1169 992 1169 702 1169 c 0,23,24
 557 1169 557 1169 454 1055 c 256,25,26
 351 941 351 941 351 779 c 256,27,28
 351 617 351 617 454 505 c 0,29,30
 557 389 557 389 702 389 c 256,31,32
 847 389 847 389 949 505 c 0,33,34
 1053 618 1053 618 1053 779 c 1,35,-1
 1404 779 l 1,36,-1
 1404 -779 l 2,37,38
 1404 -1102 1404 -1102 1198 -1331 c 256,39,40
 993 -1559 993 -1559 702 -1559 c 1,0,1
0 3120 m 5,41,-1
 0 3511 l 5,42,-1
 1404 3511 l 1,43,-1
 1404 3120 l 1,44,-1
 0 3120 l 5,41,-1
EndSplineSet
Validated: 33
EndChar

StartChar: chichao_c
Encoding: 55 -1 55
Width: 1404
GlyphClass: 2
Flags: W
HStem: 0 389<502.511 1002.16> 1169 390<497.577 1001.67> 3120 391<0 1404>
VStem: 0 351<541.739 1017.6>
AnchorPoint: "tone" 702 1559 basechar 0
LayerCount: 2
Fore
SplineSet
702 0 m 256,0,1
 411 0 411 0 206 229 c 256,2,3
 0 458 0 458 0 779 c 0,4,5
 0 1102 0 1102 206 1331 c 256,6,7
 412 1560 412 1560 702 1559 c 256,8,9
 993 1559 993 1559 1198 1674 c 256,10,11
 1404 1788 1404 1788 1404 1950 c 1,12,13
 1404 1627 1404 1627 1198 1398 c 256,14,15
 992 1169 992 1169 702 1169 c 0,16,17
 557 1169 557 1169 454 1055 c 256,18,19
 351 941 351 941 351 779 c 256,20,21
 351 617 351 617 454 505 c 0,22,23
 557 389 557 389 702 389 c 0,24,25
 993 389 993 389 1198 503 c 256,26,27
 1404 617 1404 617 1404 779 c 1,28,29
 1404 456 1404 456 1198 229 c 0,30,31
 993 0 993 0 702 0 c 256,0,1
0 3120 m 5,32,-1
 0 3511 l 5,33,-1
 1404 3511 l 1,34,-1
 1404 3120 l 1,35,-1
 0 3120 l 5,32,-1
EndSplineSet
Validated: 33
EndChar

StartChar: zozeo_c
Encoding: 56 -1 56
Width: 1404
GlyphClass: 2
Flags: W
HStem: 0 389<588.25 1053 1404 2406.48> 779 0<2808 2808> 1169 390<497.577 900.049> 3120 391<0 1404>
VStem: 0 351<779 1017> 87 351<-1129.42 -154.576> 1053 351<-1129.42 0 389 1014.39>
AnchorPoint: "tone" 702 1559 basechar 0
LayerCount: 2
Fore
SplineSet
745 -1558 m 257,0,1
 745 -1558 745 -1558 745 -1558 c 257,0,1
745 -1554 m 1,2,3
 863 -1525 863 -1525 950 -1331 c 0,4,5
 1053 -1102 1053 -1102 1053 -779 c 2,6,-1
 1053 0 l 1,7,-1
 789 0 l 2,8,9
 644 0 644 0 542 -114 c 0,10,11
 438 -228 438 -228 438 -389 c 2,12,-1
 438 -779 l 2,13,14
 438 -1102 438 -1102 540 -1331 c 0,15,16
 629 -1525 629 -1525 745 -1554 c 1,2,3
702 -1559 m 1,17,18
 718 -1559 718 -1559 732 -1558 c 1,19,20
 477 -1537 477 -1537 292 -1331 c 0,21,22
 86 -1102 86 -1102 87 -779 c 2,23,-1
 87 -389 l 2,24,25
 87 -67 87 -67 292 160 c 0,26,27
 467 354 467 354 702 384 c 1,28,-1
 702 389 l 1,29,-1
 1053 389 l 1,30,-1
 1053 779 l 2,31,32
 1053 941 1053 941 949 1055 c 0,33,34
 848 1169 848 1169 702 1169 c 256,35,36
 557 1169 557 1169 454 1055 c 256,37,38
 351 941 351 941 351 779 c 1,39,-1
 0 779 l 1,40,41
 0 1102 0 1102 206 1331 c 256,42,43
 412 1560 412 1560 702 1559 c 256,44,45
 993 1559 993 1559 1198 1331 c 256,46,47
 1404 1102 1404 1102 1404 779 c 2,48,-1
 1404 389 l 1,49,-1
 2106 389 l 2,50,51
 2397 389 2397 389 2603 503 c 256,52,53
 2809 617 2809 617 2808 779 c 1,54,55
 2808 456 2808 456 2603 229 c 0,56,57
 2397 0 2397 0 2106 0 c 2,58,-1
 1404 0 l 1,59,-1
 1404 -779 l 2,60,61
 1404 -1102 1404 -1102 1198 -1331 c 0,62,63
 1013 -1537 1013 -1537 759 -1558 c 1,64,65
 774 -1560 774 -1560 789 -1559 c 1,66,67
 768 -1559 768 -1559 745 -1558 c 0,68,69
 723 -1559 723 -1559 702 -1559 c 1,17,18
0 3120 m 5,70,-1
 0 3511 l 5,71,-1
 1404 3511 l 1,72,-1
 1404 3120 l 1,73,-1
 0 3120 l 5,70,-1
EndSplineSet
Validated: 37
EndChar

StartChar: space_c
Encoding: 57 -1 57
Width: 1404
GlyphClass: 1
Flags: W
HStem: 3120 391<0 1404>
LayerCount: 2
Fore
SplineSet
0 3120 m 5,0,-1
 0 3511 l 5,1,-1
 1404 3511 l 1,2,-1
 1404 3120 l 1,3,-1
 0 3120 l 5,0,-1
EndSplineSet
Validated: 1
EndChar

StartChar: prefix_c
Encoding: 58 -1 58
Width: 876
GlyphClass: 2
Flags: W
HStem: 155 469<290.944 589.814> 936 468<290.944 584.118> 3120 391<0 877>
VStem: 227 421<226.163 565.36 1006.16 1333.84>
LayerCount: 2
Fore
SplineSet
438 155 m 0,0,1
 351 155 351 155 289 224 c 256,2,3
 227 293 227 293 227 389 c 0,4,5
 227 487 227 487 289 555 c 256,6,7
 351 624 351 624 438 624 c 0,8,9
 526 624 526 624 586 555 c 0,10,11
 648 486 648 486 648 389 c 0,12,13
 648 293 648 293 586 224 c 0,14,15
 526 155 526 155 438 155 c 0,0,1
438 936 m 0,16,17
 351 936 351 936 289 1004 c 256,18,19
 227 1073 227 1073 227 1169 c 0,20,21
 227 1267 227 1267 289 1336 c 256,22,23
 351 1405 351 1405 438 1404 c 0,24,25
 526 1404 526 1404 586 1336 c 0,26,27
 648 1267 648 1267 648 1169 c 0,28,29
 648 1073 648 1073 586 1004 c 0,30,31
 526 936 526 936 438 936 c 0,16,17
0 3120 m 5,32,-1
 0 3511 l 5,33,-1
 877 3511 l 1,34,-1
 877 3120 l 1,35,-1
 0 3120 l 5,32,-1
EndSplineSet
Validated: 33
EndChar

StartChar: oaomo_c
Encoding: 59 -1 59
Width: 876
GlyphClass: 2
Flags: W
HStem: 545 469<290.944 589.814> 3120 391<0 877>
VStem: 227 421<616.163 955.36>
LayerCount: 2
Fore
SplineSet
438 545 m 0,0,1
 351 545 351 545 289 614 c 256,2,3
 227 683 227 683 227 779 c 0,4,5
 227 877 227 877 289 945 c 256,6,7
 351 1014 351 1014 438 1014 c 0,8,9
 526 1014 526 1014 586 945 c 0,10,11
 648 876 648 876 648 779 c 0,12,13
 648 683 648 683 586 614 c 0,14,15
 526 545 526 545 438 545 c 0,0,1
0 3120 m 5,16,-1
 0 3511 l 5,17,-1
 877 3511 l 1,18,-1
 877 3120 l 1,19,-1
 0 3120 l 5,16,-1
EndSplineSet
Validated: 1
EndChar

StartChar: quote_c
Encoding: 60 -1 60
Width: 1404
GlyphClass: 2
Flags: W
HStem: 0 21G<683.954 720.046> 3120 391<0 1404>
LayerCount: 2
Fore
SplineSet
702 0 m 1,0,-1
 351 389 l 1,1,-1
 702 779 l 1,2,-1
 1053 389 l 1,3,-1
 702 0 l 1,0,-1
702 779 m 1,4,-1
 351 1169 l 1,5,-1
 702 1559 l 1,6,-1
 1053 1169 l 1,7,-1
 702 779 l 1,4,-1
0 3120 m 5,8,-1
 0 3511 l 5,9,-1
 1404 3511 l 1,10,-1
 1404 3120 l 1,11,-1
 0 3120 l 5,8,-1
EndSplineSet
Validated: 5
EndChar

StartChar: dotted_circle
Encoding: 61 9676 61
Width: 1404
GlyphClass: 2
Flags: W
HStem: 580.304 278.187<1186.35 1299.71> 1305.42 171.179<545.826 823.878>
VStem: 40.9473 170.986<485.956 730.227> 549.522 272.628<1316.09 1453.65> 1162.82 170.817<576.301 857.136>
AnchorPoint: "diphthong" 1404 -490 basechar 0
AnchorPoint: "tone" 702 1559 basechar 0
LayerCount: 2
Fore
SplineSet
713.961914062 1497.35644531 m 0,0,1
 731.615734857 1497.0070818 731.615734857 1497.0070818 749.298828125 1495.62109375 c 2,2,-1
 835.688476562 1488.85253906 l 1,3,-1
 822.150390625 1316.08691406 l 1,4,-1
 735.767578125 1322.84863281 l 2,5,6
 685.007067683 1326.8242626 685.007067683 1326.8242626 635.108398438 1318.94335938 c 2,7,-1
 549.522460938 1305.41992188 l 1,8,-1
 522.490234375 1476.59863281 l 1,9,-1
 608.076171875 1490.11425781 l 2,10,11
 660.615647115 1498.41212188 660.615647115 1498.41212188 713.961914062 1497.35644531 c 0,0,1
1125.62792969 1334.35644531 m 1,12,-1
 1181.75976562 1268.34765625 l 2,13,14
 1226.16324025 1216.13090025 1226.16324025 1216.13090025 1260.44335938 1155.44921875 c 2,15,-1
 1303.05859375 1080.00683594 l 1,16,-1
 1152.17285156 994.767578125 l 1,17,-1
 1109.54980469 1070.2109375 l 2,18,19
 1083.4073476 1116.48779236 1083.4073476 1116.48779236 1049.74121094 1156.07714844 c 2,20,-1
 993.609375 1222.09277344 l 1,21,-1
 1125.62792969 1334.35644531 l 1,12,-1
245.543945312 1302.02441406 m 1,22,-1
 384.5078125 1198.47851562 l 1,23,-1
 332.73828125 1129 l 2,24,25
 301.545422054 1087.13766877 301.545422054 1087.13766877 278.252929688 1039.30957031 c 2,26,-1
 240.317382812 961.409179688 l 1,27,-1
 84.5078125 1037.28710938 l 1,28,-1
 122.451171875 1115.18847656 l 2,29,30
 152.87292612 1177.65546794 152.87292612 1177.65546794 193.774414062 1232.54589844 c 2,31,-1
 245.543945312 1302.02441406 l 1,22,-1
1359.65527344 858.498046875 m 1,32,-1
 1359.65527344 771.849609375 l 2,33,34
 1359.65971091 703.314392141 1359.65971091 703.314392141 1348.23632812 636.501953125 c 2,35,-1
 1333.63476562 551.09375 l 1,36,-1
 1162.81738281 580.303710938 l 1,37,-1
 1177.41894531 665.712890625 l 2,38,39
 1186.3613494 718.017766577 1186.3613494 718.017766577 1186.35839844 771.841796875 c 2,40,-1
 1186.35058594 858.490234375 l 1,41,-1
 1359.65527344 858.498046875 l 1,32,-1
211.93359375 754.590820312 m 1,42,-1
 226.047851562 669.100585938 l 2,43,44
 234.767728779 616.278366257 234.767728779 616.278366257 252.334960938 566.411132812 c 2,45,-1
 281.131835938 484.678710938 l 1,46,-1
 117.674804688 427.100585938 l 1,47,-1
 88.8857421875 508.825195312 l 2,48,49
 66.2566826303 573.056831971 66.2566826303 573.056831971 55.0615234375 640.872070312 c 2,50,-1
 40.947265625 726.362304688 l 1,51,-1
 211.93359375 754.590820312 l 1,42,-1
1067.87890625 398.399414062 m 1,52,-1
 1184.58691406 270.287109375 l 1,53,-1
 1120.52636719 211.932617188 l 2,54,55
 1068.1160319 164.188607962 1068.1160319 164.188607962 1008.09277344 129.3515625 c 2,56,-1
 933.15234375 85.857421875 l 1,57,-1
 846.1640625 235.747070312 l 1,58,-1
 921.104492188 279.241210938 l 2,59,60
 965.099955921 304.774865871 965.099955921 304.774865871 1003.81933594 340.045898438 c 2,61,-1
 1067.87890625 398.399414062 l 1,52,-1
405.47265625 324.950195312 m 1,62,-1
 480.095703125 280.90234375 l 2,63,64
 524.558232329 254.653005866 524.558232329 254.653005866 572.620117188 239.482421875 c 2,65,-1
 655.25390625 213.39453125 l 1,66,-1
 603.0859375 48.13671875 l 1,67,-1
 520.453125 74.216796875 l 2,68,69
 453.502553145 95.3498399441 453.502553145 95.3498399441 391.993164062 131.662109375 c 2,70,-1
 317.376953125 175.717773438 l 1,71,-1
 405.47265625 324.950195312 l 1,62,-1
EndSplineSet
EndChar
